{
  "accessors": [
    {
      "bufferView": 2,
      "componentType": 5126,
      "count": 3180,
      "max": [
        0.21295712888240814,
        1.264593482017517,
        0.21298713982105255
      ],
      "min": [
        -0.21301153302192688,
        -0.32476454973220825,
        -0.2129870504140854
      ],
      "type": "VEC3"
    },
    {
      "bufferView": 2,
      "byteOffset": 38160,
      "componentType": 5126,
      "count": 3180,
      "max": [
        0.9938156604766846,
        0.9999039173126221,
        0.9938151240348816
      ],
      "min": [
        -0.9938153624534607,
        -0.9821979999542236,
        -0.993815004825592
      ],
      "type": "VEC3"
    },
    {
      "bufferView": 1,
      "componentType": 5126,
      "count": 3180,
      "max": [
        0.9983080625534058,
        0.99951171875
      ],
      "min": [
        0.00048828125,
        0.00048828125
      ],
      "type": "VEC2"
    },
    {
      "bufferView": 1,
      "byteOffset": 25440,
      "componentType": 5126,
      "count": 3180,
      "max": [
        1.59260892868042,
        4.269222259521484
      ],
      "min": [
        -0.7476680278778076,
        -3.407536268234253
      ],
      "type": "VEC2"
    },
    {
      "bufferView": 1,
      "byteOffset": 50880,
      "componentType": 5126,
      "count": 3180,
      "max": [
        1.59260892868042,
        4.269222259521484
      ],
      "min": [
        -0.7476680278778076,
        -3.407536268234253
      ],
      "type": "VEC2"
    },
    {
      "bufferView": 1,
      "byteOffset": 76320,
      "componentType": 5126,
      "count": 3180,
      "max": [
        1.59260892868042,
        4.269222259521484
      ],
      "min": [
        -0.7476680278778076,
        -3.407536268234253
      ],
      "type": "VEC2"
    },
    {
      "bufferView": 1,
      "byteOffset": 101760,
      "componentType": 5126,
      "count": 3180,
      "max": [
        1.59260892868042,
        4.269222259521484
      ],
      "min": [
        -0.7476680278778076,
        -3.407536268234253
      ],
      "type": "VEC2"
    },
    {
      "bufferView": 0,
      "componentType": 5125,
      "count": 8658,
      "type": "SCALAR"
    },
    {
      "bufferView": 2,
      "byteOffset": 76320,
      "componentType": 5126,
      "count": 16,
      "max": [
        0.8069846630096436,
        5.715033054351807,
        0.822675883769989
      ],
      "min": [
        -0.8383713364601135,
        4.140018939971924,
        -0.822675883769989
      ],
      "type": "VEC3"
    },
    {
      "bufferView": 2,
      "byteOffset": 76512,
      "componentType": 5126,
      "count": 16,
      "max": [
        1.0,
        7.568774890387431e-06,
        1.0
      ],
      "min": [
        -1.0,
        -7.6066185101808514e-06,
        -1.0
      ],
      "type": "VEC3"
    },
    {
      "bufferView": 1,
      "byteOffset": 127200,
      "componentType": 5126,
      "count": 16,
      "max": [
        0.0,
        0.0
      ],
      "min": [
        0.0,
        0.0
      ],
      "type": "VEC2"
    },
    {
      "bufferView": 1,
      "byteOffset": 127328,
      "componentType": 5126,
      "count": 16,
      "max": [
        1.2373309135437012,
        1.2875070571899414
      ],
      "min": [
        -0.23733091354370117,
        -0.2875070571899414
      ],
      "type": "VEC2"
    },
    {
      "bufferView": 0,
      "byteOffset": 34632,
      "componentType": 5125,
      "count": 24,
      "type": "SCALAR"
    }
  ],
  "asset": {
    "extras": {
      "author": "larius (https://sketchfab.com/larius)",
      "license": "CC-BY-4.0 (http://creativecommons.org/licenses/by/4.0/)",
      "source": "https://sketchfab.com/3d-models/the-showcase-ba9801f352794acebf58ff2d1eb79760",
      "title": "The showcase"
    },
    "generator": "Sketchfab-15.10.0",
    "version": "2.0"
  },
  "bufferViews": [
    {
      "buffer": 0,
      "byteLength": 34728,
      "name": "floatBufferViews",
      "target": 34963
    },
    {
      "buffer": 0,
      "byteLength": 127456,
      "byteOffset": 34728,
      "byteStride": 8,
      "name": "floatBufferViews",
      "target": 34962
    },
    {
      "buffer": 0,
      "byteLength": 76704,
      "byteOffset": 162184,
      "byteStride": 12,
      "name": "floatBufferViews",
      "target": 34962
    }
  ],
  "buffers": [
    {
      "byteLength": 238888,
      "uri": "scene.bin"
    }
  ],
  "extensionsUsed": [
    "KHR_materials_specular",
    "KHR_materials_transmission"
  ],
  "images": [
    {
      "uri": "textures/ShowcaseMaterial_baseColor.png"
    },
    {
      "uri": "textures/ShowcaseMaterial_metallicRoughness.png"
    }
  ],
  "materials": [
    {
      "doubleSided": true,
      "extensions": {
        "KHR_materials_specular": {
          "specularColorFactor": [
            1.0,
            1.0,
            1.0
          ],
          "specularFactor": 0.06139141275808005
        }
      },
      "name": "ShowcaseMaterial",
      "pbrMetallicRoughness": {
        "baseColorTexture": {
          "index": 0
        },
        "metallicFactor": 0.0,
        "metallicRoughnessTexture": {
          "index": 1
        },
        "roughnessFactor": 0.6910469282255678
      }
    },
    {
      "alphaMode": "BLEND",
      "doubleSided": true,
      "extensions": {
        "KHR_materials_transmission": {
          "transmissionFactor": 0.6174842743535012
        }
      },
      "name": "Architectural_Glass",
      "pbrMetallicRoughness": {
        "baseColorFactor": [
          0.12845545090936122,
          0.10477026096571554,
          0.15090114725019055,
          0.38251572564649877
        ],
        "roughnessFactor": 0.10546729884080419
      }
    }
  ],
  "meshes": [
    {
      "name": "Object_0",
      "primitives": [
        {
          "attributes": {
            "NORMAL": 1,
            "POSITION": 0,
            "TEXCOORD_0": 2,
            "TEXCOORD_1": 3,
            "TEXCOORD_2": 4,
            "TEXCOORD_3": 5,
            "TEXCOORD_4": 6
          },
          "indices": 7,
          "material": 0,
          "mode": 4
        }
      ]
    },
    {
      "name": "Object_1",
      "primitives": [
        {
          "attributes": {
            "NORMAL": 9,
            "POSITION": 8,
            "TEXCOORD_0": 10,
            "TEXCOORD_1": 11
          },
          "indices": 12,
          "material": 1,
          "mode": 4
        }
      ]
    }
  ],
  "nodes": [
    {
      "children": [
        1
      ],
      "matrix": [
        1.0,
        0.0,
        0.0,
        0.0,
        0.0,
        3.828568672208042e-16,
        -1.0,
        0.0,
        0.0,
        1.0,
        3.828568672208042e-16,
        0.0,
        0.0,
        0.0,
        0.0,
        1.0
      ],
      "name": "Sketchfab_model"
    },
    {
      "children": [
        2
      ],
      "name": "root"
    },
    {
      "children": [
        3,
        5
      ],
      "matrix": [
        1.0,
        0.0,
        0.0,
        0.0,
        0.0,
        2.220446049250313e-16,
        1.0,
        0.0,
        0.0,
        -1.0,
        2.220446049250313e-16,
        0.0,
        0.0,
        0.0,
        0.0,
        1.0
      ],
      "name": "GLTF_SceneRootNode"
    },
    {
      "children": [
        4
      ],
      "name": "Schrank.003_0"
    },
    {
      "mesh": 0,
      "name": "Object_4"
    },
    {
      "children": [
        6
      ],
      "matrix": [
        0.19476458430290222,
        0.0,
        0.0,
        0.0,
        0.0,
        0.19476458430290222,
        0.0,
        0.0,
        0.0,
        0.0,
        0.19476458430290222,
        0.0,
        0.0,
        0.0,
        0.0,
        1.0
      ],
      "name": "Glas_1"
    },
    {
      "mesh": 1,
      "name": "Object_6"
    }
  ],
  "samplers": [
    {
      "magFilter": 9729,
      "minFilter": 9987,
      "wrapS": 10497,
      "wrapT": 10497
    }
  ],
  "scene": 0,
  "scenes": [
    {
      "name": "Sketchfab_Scene",
      "nodes": [
        0
      ]
    }
  ],
  "textures": [
    {
      "sampler": 0,
      "source": 0
    },
    {
      "sampler": 0,
      "source": 1
    }
  ]
}
