{
  "accessors": [
    {
      "bufferView": 2,
      "componentType": 5126,
      "count": 65532,
      "max": [
        1.4673231840133667,
        1.5593541860580444,
        0.5953482985496521
      ],
      "min": [
        -1.5055335760116577,
        -1.4000940322875977,
        0.5370258688926697
      ],
      "type": "VEC3"
    },
    {
      "bufferView": 2,
      "byteOffset": 786384,
      "componentType": 5126,
      "count": 65532,
      "max": [
        0.9983631372451782,
        0.9977604746818542,
        1.0
      ],
      "min": [
        -0.9998957514762878,
        -0.9961247444152832,
        -0.8126805424690247
      ],
      "type": "VEC3"
    },
    {
      "bufferView": 1,
      "componentType": 5126,
      "count": 65532,
      "max": [
        0.9990358352661133,
        0.9831541776657104
      ],
      "min": [
        0.022705078125,
        0.0003708197036758065
      ],
      "type": "VEC2"
    },
    {
      "bufferView": 0,
      "componentType": 5125,
      "count": 314436,
      "type": "SCALAR"
    },
    {
      "bufferView": 2,
      "byteOffset": 1572768,
      "componentType": 5126,
      "count": 65533,
      "max": [
        1.4670425653457642,
        0.9489226341247559,
        0.9291196465492249
      ],
      "min": [
        -1.5052878856658936,
        -1.3960214853286743,
        0.539969265460968
      ],
      "type": "VEC3"
    },
    {
      "bufferView": 2,
      "byteOffset": 2359164,
      "componentType": 5126,
      "count": 65533,
      "max": [
        0.9987367391586304,
        0.9995018243789673,
        1.0
      ],
      "min": [
        -1.0,
        -0.9999999403953552,
        -0.997778058052063
      ],
      "type": "VEC3"
    },
    {
      "bufferView": 1,
      "byteOffset": 524256,
      "componentType": 5126,
      "count": 65533,
      "max": [
        0.9997379779815674,
        0.9258028268814087
      ],
      "min": [
        0.000244140625,
        0.00025238527450710535
      ],
      "type": "VEC2"
    },
    {
      "bufferView": 0,
      "byteOffset": 1257744,
      "componentType": 5125,
      "count": 315153,
      "type": "SCALAR"
    },
    {
      "bufferView": 2,
      "byteOffset": 3145560,
      "componentType": 5126,
      "count": 65532,
      "max": [
        0.544111967086792,
        0.9264391660690308,
        3.089076042175293
      ],
      "min": [
        -1.5047227144241333,
        -0.9589458107948303,
        0.5438536405563354
      ],
      "type": "VEC3"
    },
    {
      "bufferView": 2,
      "byteOffset": 3931944,
      "componentType": 5126,
      "count": 65532,
      "max": [
        0.99942946434021,
        1.0,
        1.0
      ],
      "min": [
        -1.0,
        -0.9999999403953552,
        -0.9997851252555847
      ],
      "type": "VEC3"
    },
    {
      "bufferView": 1,
      "byteOffset": 1048520,
      "componentType": 5126,
      "count": 65532,
      "max": [
        0.9990078806877136,
        0.9938963651657104
      ],
      "min": [
        0.000244140625,
        0.00024421943817287683
      ],
      "type": "VEC2"
    },
    {
      "bufferView": 0,
      "byteOffset": 2518356,
      "componentType": 5125,
      "count": 302064,
      "type": "SCALAR"
    },
    {
      "bufferView": 2,
      "byteOffset": 4718328,
      "componentType": 5126,
      "count": 65532,
      "max": [
        0.5465955138206482,
        0.6393450498580933,
        3.090139389038086
      ],
      "min": [
        -0.5797623991966248,
        -0.4890817105770111,
        1.433388590812683
      ],
      "type": "VEC3"
    },
    {
      "bufferView": 2,
      "byteOffset": 5504712,
      "componentType": 5126,
      "count": 65532,
      "max": [
        0.9999998807907104,
        1.0,
        1.0
      ],
      "min": [
        -1.0,
        -0.9999997019767761,
        -0.9993385672569275
      ],
      "type": "VEC3"
    },
    {
      "bufferView": 1,
      "byteOffset": 1572776,
      "componentType": 5126,
      "count": 65532,
      "max": [
        0.9997060298919678,
        0.9890135526657104
      ],
      "min": [
        0.000244140625,
        0.0002452327171340585
      ],
      "type": "VEC2"
    },
    {
      "bufferView": 0,
      "byteOffset": 3726612,
      "componentType": 5125,
      "count": 308919,
      "type": "SCALAR"
    },
    {
      "bufferView": 2,
      "byteOffset": 6291096,
      "componentType": 5126,
      "count": 65532,
      "max": [
        0.5445371866226196,
        0.6382240056991577,
        2.907183885574341
      ],
      "min": [
        -0.5812338590621948,
        -0.48978933691978455,
        1.4295616149902344
      ],
      "type": "VEC3"
    },
    {
      "bufferView": 2,
      "byteOffset": 7077480,
      "componentType": 5126,
      "count": 65532,
      "max": [
        1.0,
        0.9999993443489075,
        0.9998148083686829
      ],
      "min": [
        -0.9999989867210388,
        -1.0,
        -0.9999913573265076
      ],
      "type": "VEC3"
    },
    {
      "bufferView": 1,
      "byteOffset": 2097032,
      "componentType": 5126,
      "count": 65532,
      "max": [
        0.9996566772460938,
        0.9890135526657104
      ],
      "min": [
        0.000244140625,
        0.00024463667068630457
      ],
      "type": "VEC2"
    },
    {
      "bufferView": 0,
      "byteOffset": 4962288,
      "componentType": 5125,
      "count": 294273,
      "type": "SCALAR"
    },
    {
      "bufferView": 2,
      "byteOffset": 7863864,
      "componentType": 5126,
      "count": 65532,
      "max": [
        1.0035195350646973,
        1.0473666191101074,
        2.6361544132232666
      ],
      "min": [
        -0.7826759219169617,
        -1.3999074697494507,
        0.523501992225647
      ],
      "type": "VEC3"
    },
    {
      "bufferView": 2,
      "byteOffset": 8650248,
      "componentType": 5126,
      "count": 65532,
      "max": [
        0.9999921917915344,
        1.0,
        1.0
      ],
      "min": [
        -1.0,
        -0.9999995827674866,
        -0.9999406337738037
      ],
      "type": "VEC3"
    },
    {
      "bufferView": 1,
      "byteOffset": 2621288,
      "componentType": 5126,
      "count": 65532,
      "max": [
        0.9996963739395142,
        0.9938963651657104
      ],
      "min": [
        0.000244140625,
        0.0002604915061965585
      ],
      "type": "VEC2"
    },
    {
      "bufferView": 0,
      "byteOffset": 6139380,
      "componentType": 5125,
      "count": 306891,
      "type": "SCALAR"
    },
    {
      "bufferView": 2,
      "byteOffset": 9436632,
      "componentType": 5126,
      "count": 65532,
      "max": [
        0.9324025511741638,
        1.355040192604065,
        1.964295506477356
      ],
      "min": [
        -0.9048840999603271,
        -0.6371982097625732,
        0.5641092658042908
      ],
      "type": "VEC3"
    },
    {
      "bufferView": 2,
      "byteOffset": 10223016,
      "componentType": 5126,
      "count": 65532,
      "max": [
        1.0,
        1.0,
        1.0
      ],
      "min": [
        -0.9883390069007874,
        -1.0,
        -0.9999629259109497
      ],
      "type": "VEC3"
    },
    {
      "bufferView": 1,
      "byteOffset": 3145544,
      "componentType": 5126,
      "count": 65532,
      "max": [
        0.9995596408843994,
        0.9831541776657104
      ],
      "min": [
        0.000244140625,
        0.00025298132095485926
      ],
      "type": "VEC2"
    },
    {
      "bufferView": 0,
      "byteOffset": 7366944,
      "componentType": 5125,
      "count": 327513,
      "type": "SCALAR"
    },
    {
      "bufferView": 2,
      "byteOffset": 11009400,
      "componentType": 5126,
      "count": 65532,
      "max": [
        1.3945388793945313,
        1.0449005365371704,
        1.9668817520141602
      ],
      "min": [
        -0.30054810643196106,
        -1.0126999616622925,
        0.5470172762870789
      ],
      "type": "VEC3"
    },
    {
      "bufferView": 2,
      "byteOffset": 11795784,
      "componentType": 5126,
      "count": 65532,
      "max": [
        0.9999998807907104,
        0.9936409592628479,
        1.0
      ],
      "min": [
        -0.9998957514762878,
        -0.9999999403953552,
        -0.9779871702194214
      ],
      "type": "VEC3"
    },
    {
      "bufferView": 1,
      "byteOffset": 3669800,
      "componentType": 5126,
      "count": 65532,
      "max": [
        0.9997493028640747,
        0.9906586408615112
      ],
      "min": [
        0.000244140625,
        0.00025500787887722254
      ],
      "type": "VEC2"
    },
    {
      "bufferView": 0,
      "byteOffset": 8676996,
      "componentType": 5125,
      "count": 302526,
      "type": "SCALAR"
    },
    {
      "bufferView": 2,
      "byteOffset": 12582168,
      "componentType": 5126,
      "count": 65532,
      "max": [
        1.3991763591766357,
        1.5593541860580444,
        1.2576981782913208
      ],
      "min": [
        -1.4090631008148193,
        -0.8745189309120178,
        0.5546835660934448
      ],
      "type": "VEC3"
    },
    {
      "bufferView": 2,
      "byteOffset": 13368552,
      "componentType": 5126,
      "count": 65532,
      "max": [
        0.9999998807907104,
        1.0,
        1.0
      ],
      "min": [
        -0.9996539950370789,
        -0.999999463558197,
        -0.9996867775917053
      ],
      "type": "VEC3"
    },
    {
      "bufferView": 1,
      "byteOffset": 4194056,
      "componentType": 5126,
      "count": 65532,
      "max": [
        0.9996050596237183,
        0.9909666776657104
      ],
      "min": [
        0.000244140625,
        0.0002513123909011483
      ],
      "type": "VEC2"
    },
    {
      "bufferView": 0,
      "byteOffset": 9887100,
      "componentType": 5125,
      "count": 265530,
      "type": "SCALAR"
    },
    {
      "bufferView": 2,
      "byteOffset": 14154936,
      "componentType": 5126,
      "count": 58637,
      "max": [
        1.4553589820861816,
        1.5593541860580444,
        1.966476321220398
      ],
      "min": [
        -0.9841467142105103,
        -0.875699520111084,
        0.555169939994812
      ],
      "type": "VEC3"
    },
    {
      "bufferView": 2,
      "byteOffset": 14858580,
      "componentType": 5126,
      "count": 58637,
      "max": [
        0.9998325109481812,
        0.9999997019767761,
        1.0
      ],
      "min": [
        -1.0,
        -0.9999999403953552,
        -0.9999749064445496
      ],
      "type": "VEC3"
    },
    {
      "bufferView": 1,
      "byteOffset": 4718312,
      "componentType": 5126,
      "count": 58637,
      "max": [
        0.9996712803840637,
        0.9928651452064514
      ],
      "min": [
        0.001220703125,
        0.00026078952942043543
      ],
      "type": "VEC2"
    },
    {
      "bufferView": 0,
      "byteOffset": 10949220,
      "componentType": 5125,
      "count": 262266,
      "type": "SCALAR"
    }
  ],
  "asset": {
    "extras": {
      "author": "Katie Wolfe (https://sketchfab.com/katiewolfe)",
      "license": "CC-BY-4.0 (http://creativecommons.org/licenses/by/4.0/)",
      "source": "https://sketchfab.com/3d-models/christopher-columbus-monument-plinth-bf66a3ae0c68469f84a43083439afd63",
      "title": "Christopher Columbus monument plinth"
    },
    "generator": "Sketchfab-13.27.0",
    "version": "2.0"
  },
  "bufferViews": [
    {
      "buffer": 0,
      "byteLength": 11998284,
      "name": "floatBufferViews",
      "target": 34963
    },
    {
      "buffer": 0,
      "byteLength": 5187408,
      "byteOffset": 11998284,
      "byteStride": 8,
      "name": "floatBufferViews",
      "target": 34962
    },
    {
      "buffer": 0,
      "byteLength": 15562224,
      "byteOffset": 17185692,
      "byteStride": 12,
      "name": "floatBufferViews",
      "target": 34962
    }
  ],
  "buffers": [
    {
      "byteLength": 32747916,
      "uri": "scene.bin"
    }
  ],
  "images": [
    {
      "uri": "textures/tex_u1_v1_baseColor.jpeg"
    }
  ],
  "materials": [
    {
      "doubleSided": true,
      "name": "tex_u1_v1",
      "pbrMetallicRoughness": {
        "baseColorTexture": {
          "index": 0
        },
        "metallicFactor": 0.0,
        "roughnessFactor": 0.8867567518237073
      }
    }
  ],
  "meshes": [
    {
      "name": "Object_0",
      "primitives": [
        {
          "attributes": {
            "NORMAL": 1,
            "POSITION": 0,
            "TEXCOORD_0": 2
          },
          "indices": 3,
          "material": 0,
          "mode": 4
        }
      ]
    },
    {
      "name": "Object_1",
      "primitives": [
        {
          "attributes": {
            "NORMAL": 5,
            "POSITION": 4,
            "TEXCOORD_0": 6
          },
          "indices": 7,
          "material": 0,
          "mode": 4
        }
      ]
    },
    {
      "name": "Object_2",
      "primitives": [
        {
          "attributes": {
            "NORMAL": 9,
            "POSITION": 8,
            "TEXCOORD_0": 10
          },
          "indices": 11,
          "material": 0,
          "mode": 4
        }
      ]
    },
    {
      "name": "Object_3",
      "primitives": [
        {
          "attributes": {
            "NORMAL": 13,
            "POSITION": 12,
            "TEXCOORD_0": 14
          },
          "indices": 15,
          "material": 0,
          "mode": 4
        }
      ]
    },
    {
      "name": "Object_4",
      "primitives": [
        {
          "attributes": {
            "NORMAL": 17,
            "POSITION": 16,
            "TEXCOORD_0": 18
          },
          "indices": 19,
          "material": 0,
          "mode": 4
        }
      ]
    },
    {
      "name": "Object_5",
      "primitives": [
        {
          "attributes": {
            "NORMAL": 21,
            "POSITION": 20,
            "TEXCOORD_0": 22
          },
          "indices": 23,
          "material": 0,
          "mode": 4
        }
      ]
    },
    {
      "name": "Object_6",
      "primitives": [
        {
          "attributes": {
            "NORMAL": 25,
            "POSITION": 24,
            "TEXCOORD_0": 26
          },
          "indices": 27,
          "material": 0,
          "mode": 4
        }
      ]
    },
    {
      "name": "Object_7",
      "primitives": [
        {
          "attributes": {
            "NORMAL": 29,
            "POSITION": 28,
            "TEXCOORD_0": 30
          },
          "indices": 31,
          "material": 0,
          "mode": 4
        }
      ]
    },
    {
      "name": "Object_8",
      "primitives": [
        {
          "attributes": {
            "NORMAL": 33,
            "POSITION": 32,
            "TEXCOORD_0": 34
          },
          "indices": 35,
          "material": 0,
          "mode": 4
        }
      ]
    },
    {
      "name": "Object_9",
      "primitives": [
        {
          "attributes": {
            "NORMAL": 37,
            "POSITION": 36,
            "TEXCOORD_0": 38
          },
          "indices": 39,
          "material": 0,
          "mode": 4
        }
      ]
    }
  ],
  "nodes": [
    {
      "children": [
        1
      ],
      "matrix": [
        1.0,
        0.0,
        0.0,
        0.0,
        0.0,
        2.220446049250313e-16,
        -1.0,
        0.0,
        0.0,
        1.0,
        2.220446049250313e-16,
        0.0,
        0.0,
        0.0,
        0.0,
        1.0
      ],
      "name": "Sketchfab_model"
    },
    {
      "children": [
        2,
        3,
        4,
        5,
        6,
        7,
        8,
        9,
        10,
        11
      ],
      "name": "model.obj.cleaner.materialmerger.gles"
    },
    {
      "mesh": 0,
      "name": "Object_2"
    },
    {
      "mesh": 1,
      "name": "Object_3"
    },
    {
      "mesh": 2,
      "name": "Object_4"
    },
    {
      "mesh": 3,
      "name": "Object_5"
    },
    {
      "mesh": 4,
      "name": "Object_6"
    },
    {
      "mesh": 5,
      "name": "Object_7"
    },
    {
      "mesh": 6,
      "name": "Object_8"
    },
    {
      "mesh": 7,
      "name": "Object_9"
    },
    {
      "mesh": 8,
      "name": "Object_10"
    },
    {
      "mesh": 9,
      "name": "Object_11"
    }
  ],
  "samplers": [
    {
      "magFilter": 9729,
      "minFilter": 9987,
      "wrapS": 10497,
      "wrapT": 10497
    }
  ],
  "scene": 0,
  "scenes": [
    {
      "name": "Sketchfab_Scene",
      "nodes": [
        0
      ]
    }
  ],
  "textures": [
    {
      "sampler": 0,
      "source": 0
    }
  ]
}
