{
  "accessors": [
    {
      "bufferView": 2,
      "componentType": 5126,
      "count": 9,
      "max": [
        20.368101119995117,
        25.65869903564453,
        94.595703125
      ],
      "min": [
        18.75170135498047,
        25.241100311279297,
        94.09379577636719
      ],
      "type": "VEC3"
    },
    {
      "bufferView": 2,
      "byteOffset": 108,
      "componentType": 5126,
      "count": 9,
      "max": [
        0.5495147705078125,
        0.5858085751533508,
        -0.6807183623313904
      ],
      "min": [
        0.007800114341080189,
        0.4844130575656891,
        -0.8209903836250305
      ],
      "type": "VEC3"
    },
    {
      "bufferView": 3,
      "componentType": 5126,
      "count": 9,
      "max": [
        -0.1959533542394638,
        0.8667590022087097,
        0.5420658588409424,
        1.0
      ],
      "min": [
        -0.7542511224746704,
        0.5531165599822998,
        0.3537899851799011,
        -1.0
      ],
      "type": "VEC4"
    },
    {
      "bufferView": 1,
      "componentType": 5126,
      "count": 9,
      "max": [
        0.9509999752044678,
        0.5637999773025513
      ],
      "min": [
        0.4616999924182892,
        0.46050000190734863
      ],
      "type": "VEC2"
    },
    {
      "bufferView": 0,
      "componentType": 5125,
      "count": 9,
      "type": "SCALAR"
    },
    {
      "bufferView": 2,
      "byteOffset": 216,
      "componentType": 5126,
      "count": 65532,
      "max": [
        32.79690170288086,
        73.48419952392578,
        104.74839782714844
      ],
      "min": [
        7.9788007736206055,
        1.0074005126953125,
        0.0
      ],
      "type": "VEC3"
    },
    {
      "bufferView": 2,
      "byteOffset": 786600,
      "componentType": 5126,
      "count": 65532,
      "max": [
        0.9999997615814209,
        0.9999977350234985,
        0.9999686479568481
      ],
      "min": [
        -0.9999980926513672,
        -0.9999974966049194,
        -0.9999982118606567
      ],
      "type": "VEC3"
    },
    {
      "bufferView": 3,
      "byteOffset": 144,
      "componentType": 5126,
      "count": 65532,
      "max": [
        0.9999963045120239,
        0.9999822378158569,
        0.9999974966049194,
        1.0
      ],
      "min": [
        -0.9999959468841553,
        -0.9999819397926331,
        -0.999994158744812,
        -1.0
      ],
      "type": "VEC4"
    },
    {
      "bufferView": 1,
      "byteOffset": 72,
      "componentType": 5126,
      "count": 65532,
      "max": [
        0.9958999752998352,
        0.996399998664856
      ],
      "min": [
        0.003599999938160181,
        0.0020000000949949026
      ],
      "type": "VEC2"
    },
    {
      "bufferView": 0,
      "byteOffset": 36,
      "componentType": 5125,
      "count": 311292,
      "type": "SCALAR"
    },
    {
      "bufferView": 2,
      "byteOffset": 1572984,
      "componentType": 5126,
      "count": 65532,
      "max": [
        37.634300231933594,
        73.52510070800781,
        104.75180053710938
      ],
      "min": [
        0.0,
        0.0,
        0.045101165771484375
      ],
      "type": "VEC3"
    },
    {
      "bufferView": 2,
      "byteOffset": 2359368,
      "componentType": 5126,
      "count": 65532,
      "max": [
        0.9999992847442627,
        0.9999816417694092,
        0.9999896287918091
      ],
      "min": [
        -0.9999973773956299,
        -0.9998374581336975,
        -0.9999691247940063
      ],
      "type": "VEC3"
    },
    {
      "bufferView": 3,
      "byteOffset": 1048656,
      "componentType": 5126,
      "count": 65532,
      "max": [
        0.999997615814209,
        0.9999721646308899,
        0.9999918341636658,
        1.0
      ],
      "min": [
        -0.9999963045120239,
        -0.9999715089797974,
        -1.0,
        -1.0
      ],
      "type": "VEC4"
    },
    {
      "bufferView": 1,
      "byteOffset": 524328,
      "componentType": 5126,
      "count": 65532,
      "max": [
        0.9965000152587891,
        0.998199999332428
      ],
      "min": [
        0.0017999999690800905,
        0.001500000013038516
      ],
      "type": "VEC2"
    },
    {
      "bufferView": 0,
      "byteOffset": 1245204,
      "componentType": 5125,
      "count": 312078,
      "type": "SCALAR"
    },
    {
      "bufferView": 2,
      "byteOffset": 3145752,
      "componentType": 5126,
      "count": 65532,
      "max": [
        37.626197814941406,
        73.16790008544922,
        104.59159851074219
      ],
      "min": [
        7.810100555419922,
        0.6898002624511719,
        0.19659805297851563
      ],
      "type": "VEC3"
    },
    {
      "bufferView": 2,
      "byteOffset": 3932136,
      "componentType": 5126,
      "count": 65532,
      "max": [
        0.9999985694885254,
        0.9999938011169434,
        0.9999583959579468
      ],
      "min": [
        -0.9999973773956299,
        -0.9999886751174927,
        -0.9999977350234985
      ],
      "type": "VEC3"
    },
    {
      "bufferView": 3,
      "byteOffset": 2097168,
      "componentType": 5126,
      "count": 65532,
      "max": [
        0.9999949336051941,
        0.9999815225601196,
        0.9999736547470093,
        1.0
      ],
      "min": [
        -0.9999959468841553,
        -0.9999987483024597,
        -0.9999823570251465,
        -1.0
      ],
      "type": "VEC4"
    },
    {
      "bufferView": 1,
      "byteOffset": 1048584,
      "componentType": 5126,
      "count": 65532,
      "max": [
        0.9961000084877014,
        0.998199999332428
      ],
      "min": [
        0.0017999999690800905,
        0.0013000000035390258
      ],
      "type": "VEC2"
    },
    {
      "bufferView": 0,
      "byteOffset": 2493516,
      "componentType": 5125,
      "count": 300354,
      "type": "SCALAR"
    },
    {
      "bufferView": 2,
      "byteOffset": 4718520,
      "componentType": 5126,
      "count": 65532,
      "max": [
        37.769901275634766,
        73.52459716796875,
        104.716796875
      ],
      "min": [
        0.0,
        0.04650115966796875,
        0.019199371337890625
      ],
      "type": "VEC3"
    },
    {
      "bufferView": 2,
      "byteOffset": 5504904,
      "componentType": 5126,
      "count": 65532,
      "max": [
        0.9999992847442627,
        0.9999825954437256,
        0.9999896287918091
      ],
      "min": [
        -0.9999998807907104,
        -0.9999967813491821,
        -0.999958872795105
      ],
      "type": "VEC3"
    },
    {
      "bufferView": 3,
      "byteOffset": 3145680,
      "componentType": 5126,
      "count": 65532,
      "max": [
        0.9999901652336121,
        0.9999711513519287,
        0.9999844431877136,
        1.0
      ],
      "min": [
        -0.9999912977218628,
        -0.9999987483024597,
        -0.9999983906745911,
        -1.0
      ],
      "type": "VEC4"
    },
    {
      "bufferView": 1,
      "byteOffset": 1572840,
      "componentType": 5126,
      "count": 65532,
      "max": [
        0.9970999956130981,
        0.998199999332428
      ],
      "min": [
        0.0017999999690800905,
        0.0012000000569969416
      ],
      "type": "VEC2"
    },
    {
      "bufferView": 0,
      "byteOffset": 3694932,
      "componentType": 5125,
      "count": 235494,
      "type": "SCALAR"
    },
    {
      "bufferView": 2,
      "byteOffset": 6291288,
      "componentType": 5126,
      "count": 19651,
      "max": [
        37.57640075683594,
        73.52459716796875,
        104.68299865722656
      ],
      "min": [
        0.05480003356933594,
        0.0,
        0.003299713134765625
      ],
      "type": "VEC3"
    },
    {
      "bufferView": 2,
      "byteOffset": 6527100,
      "componentType": 5126,
      "count": 19651,
      "max": [
        0.9999961853027344,
        0.9999849796295166,
        0.9999228715896606
      ],
      "min": [
        -0.999994158744812,
        -0.9999967813491821,
        -0.9999982118606567
      ],
      "type": "VEC3"
    },
    {
      "bufferView": 3,
      "byteOffset": 4194192,
      "componentType": 5126,
      "count": 19651,
      "max": [
        0.9999045729637146,
        0.999760091304779,
        0.9999779462814331,
        1.0
      ],
      "min": [
        -0.999984860420227,
        -0.9999819397926331,
        -0.9999945759773254,
        -1.0
      ],
      "type": "VEC4"
    },
    {
      "bufferView": 1,
      "byteOffset": 2097096,
      "componentType": 5126,
      "count": 19651,
      "max": [
        0.9968000054359436,
        0.9970999956130981
      ],
      "min": [
        0.0017999999690800905,
        0.0013000000035390258
      ],
      "type": "VEC2"
    },
    {
      "bufferView": 0,
      "byteOffset": 4636908,
      "componentType": 5125,
      "count": 32718,
      "type": "SCALAR"
    }
  ],
  "asset": {
    "extras": {
      "author": "Alienor.org, Conseil des musées (https://sketchfab.com/alienor.org)",
      "license": "CC-BY-NC-ND-4.0 (http://creativecommons.org/licenses/by-nc-nd/4.0/)",
      "source": "https://sketchfab.com/3d-models/velocipede-artisanal-dimitation-michaux-a4f6d139cbff485484d4f085167e9af2",
      "title": "Vélocipède artisanal d'imitation Michaux"
    },
    "generator": "Sketchfab-16.56.0",
    "version": "2.0"
  },
  "bufferViews": [
    {
      "buffer": 0,
      "byteLength": 4767780,
      "name": "floatBufferViews",
      "target": 34963
    },
    {
      "buffer": 0,
      "byteLength": 2254304,
      "byteOffset": 4767780,
      "byteStride": 8,
      "name": "floatBufferViews",
      "target": 34962
    },
    {
      "buffer": 0,
      "byteLength": 6762912,
      "byteOffset": 7022084,
      "byteStride": 12,
      "name": "floatBufferViews",
      "target": 34962
    },
    {
      "buffer": 0,
      "byteLength": 4508608,
      "byteOffset": 13784996,
      "byteStride": 16,
      "name": "floatBufferViews",
      "target": 34962
    }
  ],
  "buffers": [
    {
      "byteLength": 18293604,
      "uri": "scene.bin"
    }
  ],
  "images": [
    {
      "uri": "textures/material_0_baseColor.jpeg"
    },
    {
      "uri": "textures/material_0_normal.png"
    }
  ],
  "materials": [
    {
      "doubleSided": true,
      "emissiveTexture": {
        "index": 0
      },
      "name": "material_0",
      "normalTexture": {
        "index": 1
      },
      "pbrMetallicRoughness": {
        "baseColorTexture": {
          "index": 0
        },
        "metallicFactor": 0.0,
        "roughnessFactor": 0.6
      }
    }
  ],
  "meshes": [
    {
      "name": "Object_0",
      "primitives": [
        {
          "attributes": {
            "NORMAL": 1,
            "POSITION": 0,
            "TANGENT": 2,
            "TEXCOORD_0": 3
          },
          "indices": 4,
          "material": 0,
          "mode": 4
        }
      ]
    },
    {
      "name": "Object_1",
      "primitives": [
        {
          "attributes": {
            "NORMAL": 6,
            "POSITION": 5,
            "TANGENT": 7,
            "TEXCOORD_0": 8
          },
          "indices": 9,
          "material": 0,
          "mode": 4
        }
      ]
    },
    {
      "name": "Object_2",
      "primitives": [
        {
          "attributes": {
            "NORMAL": 11,
            "POSITION": 10,
            "TANGENT": 12,
            "TEXCOORD_0": 13
          },
          "indices": 14,
          "material": 0,
          "mode": 4
        }
      ]
    },
    {
      "name": "Object_3",
      "primitives": [
        {
          "attributes": {
            "NORMAL": 16,
            "POSITION": 15,
            "TANGENT": 17,
            "TEXCOORD_0": 18
          },
          "indices": 19,
          "material": 0,
          "mode": 4
        }
      ]
    },
    {
      "name": "Object_4",
      "primitives": [
        {
          "attributes": {
            "NORMAL": 21,
            "POSITION": 20,
            "TANGENT": 22,
            "TEXCOORD_0": 23
          },
          "indices": 24,
          "material": 0,
          "mode": 4
        }
      ]
    },
    {
      "name": "Object_5",
      "primitives": [
        {
          "attributes": {
            "NORMAL": 26,
            "POSITION": 25,
            "TANGENT": 27,
            "TEXCOORD_0": 28
          },
          "indices": 29,
          "material": 0,
          "mode": 4
        }
      ]
    }
  ],
  "nodes": [
    {
      "children": [
        1
      ],
      "matrix": [
        0.016864274919169198,
        5.478736203879023e-18,
        -0.018428896202619338,
        0.0,
        -6.794826214083613e-17,
        -0.02498055249452591,
        -9.290884823338818e-17,
        0.0,
        -0.018428896202619338,
        1.2092070597403227e-16,
        -0.016864274919169198,
        0.0,
        0.0,
        0.0,
        0.0,
        1.0
      ],
      "name": "Sketchfab_model"
    },
    {
      "children": [
        2
      ],
      "matrix": [
        1.0,
        0.0,
        0.0,
        0.0,
        0.0,
        1.0,
        0.0,
        0.0,
        0.0,
        0.0,
        1.0,
        0.0,
        -17.723100662231445,
        -38.706600189208984,
        -49.11479949951172,
        1.0
      ],
      "name": "chatelvelomichau.obj.cleaner.gles"
    },
    {
      "children": [
        3,
        4,
        5,
        6,
        7,
        8
      ],
      "name": "Object_2"
    },
    {
      "mesh": 0,
      "name": "Object_3"
    },
    {
      "mesh": 1,
      "name": "Object_4"
    },
    {
      "mesh": 2,
      "name": "Object_5"
    },
    {
      "mesh": 3,
      "name": "Object_6"
    },
    {
      "mesh": 4,
      "name": "Object_7"
    },
    {
      "mesh": 5,
      "name": "Object_8"
    }
  ],
  "samplers": [
    {
      "magFilter": 9729,
      "minFilter": 9987,
      "wrapS": 10497,
      "wrapT": 10497
    }
  ],
  "scene": 0,
  "scenes": [
    {
      "name": "Sketchfab_Scene",
      "nodes": [
        0
      ]
    }
  ],
  "textures": [
    {
      "sampler": 0,
      "source": 0
    },
    {
      "sampler": 0,
      "source": 1
    }
  ]
}
