{
  "accessors": [
    {
      "bufferView": 2,
      "componentType": 5126,
      "count": 24,
      "max": [
        434.0,
        -480.0,
        -363.17236328125
      ],
      "min": [
        419.4805603027344,
        -2280.0,
        -371.0920715332031
      ],
      "type": "VEC3"
    },
    {
      "bufferView": 2,
      "byteOffset": 288,
      "componentType": 5126,
      "count": 24,
      "max": [
        0.9138107895851135,
        1.0,
        0.9138107895851135
      ],
      "min": [
        -0.9138107895851135,
        -1.0,
        -0.9138107895851135
      ],
      "type": "VEC3"
    },
    {
      "bufferView": 1,
      "componentType": 5126,
      "count": 24,
      "max": [
        1.5,
        180.0
      ],
      "min": [
        -0.10000000149011612,
        -0.75
      ],
      "type": "VEC2"
    },
    {
      "bufferView": 0,
      "componentType": 5125,
      "count": 36,
      "type": "SCALAR"
    },
    {
      "bufferView": 2,
      "byteOffset": 576,
      "componentType": 5126,
      "count": 558,
      "max": [
        -440.0,
        -452.0,
        405.92657470703125
      ],
      "min": [
        -454.1957702636719,
        -2202.0,
        -405.92657470703125
      ],
      "type": "VEC3"
    },
    {
      "bufferView": 2,
      "byteOffset": 7272,
      "componentType": 5126,
      "count": 558,
      "max": [
        1.0,
        1.0,
        0.999196469783783
      ],
      "min": [
        -0.9919537901878357,
        -1.0,
        -0.999196469783783
      ],
      "type": "VEC3"
    },
    {
      "bufferView": 1,
      "byteOffset": 192,
      "componentType": 5126,
      "count": 558,
      "max": [
        3.25,
        3.25
      ],
      "min": [
        -0.6475499868392944,
        -1.4439369440078735
      ],
      "type": "VEC2"
    },
    {
      "bufferView": 0,
      "byteOffset": 144,
      "componentType": 5125,
      "count": 1602,
      "type": "SCALAR"
    },
    {
      "bufferView": 2,
      "byteOffset": 13968,
      "componentType": 5126,
      "count": 792,
      "max": [
        -440.0,
        -411.0,
        405.92657470703125
      ],
      "min": [
        -456.8047180175781,
        -2243.0,
        -405.92657470703125
      ],
      "type": "VEC3"
    },
    {
      "bufferView": 2,
      "byteOffset": 23472,
      "componentType": 5126,
      "count": 792,
      "max": [
        1.0,
        1.0,
        0.999196469783783
      ],
      "min": [
        -0.9995228052139282,
        -1.0,
        -0.999196469783783
      ],
      "type": "VEC3"
    },
    {
      "bufferView": 1,
      "byteOffset": 4656,
      "componentType": 5126,
      "count": 792,
      "max": [
        3.25,
        2.529473066329956
      ],
      "min": [
        -1.0210180282592773,
        -3.25
      ],
      "type": "VEC2"
    },
    {
      "bufferView": 0,
      "byteOffset": 6552,
      "componentType": 5125,
      "count": 2088,
      "type": "SCALAR"
    },
    {
      "bufferView": 2,
      "byteOffset": 32976,
      "componentType": 5126,
      "count": 482,
      "max": [
        475.0,
        -10.0,
        475.0
      ],
      "min": [
        -475.0,
        -2232.0,
        -475.0
      ],
      "type": "VEC3"
    },
    {
      "bufferView": 2,
      "byteOffset": 38760,
      "componentType": 5126,
      "count": 482,
      "max": [
        1.0,
        1.0,
        1.0
      ],
      "min": [
        -1.0,
        -1.0,
        -1.0
      ],
      "type": "VEC3"
    },
    {
      "bufferView": 1,
      "byteOffset": 10992,
      "componentType": 5126,
      "count": 482,
      "max": [
        95.0,
        47.5
      ],
      "min": [
        -91.0,
        -47.5
      ],
      "type": "VEC2"
    },
    {
      "bufferView": 0,
      "byteOffset": 14904,
      "componentType": 5125,
      "count": 1410,
      "type": "SCALAR"
    },
    {
      "bufferView": 2,
      "byteOffset": 44544,
      "componentType": 5126,
      "count": 624,
      "max": [
        417.5,
        -350.0,
        430.0
      ],
      "min": [
        -417.5,
        -2282.0,
        -430.0
      ],
      "type": "VEC3"
    },
    {
      "bufferView": 2,
      "byteOffset": 52032,
      "componentType": 5126,
      "count": 624,
      "max": [
        1.0,
        1.0,
        1.0
      ],
      "min": [
        -1.0,
        -1.0,
        -1.0
      ],
      "type": "VEC3"
    },
    {
      "bufferView": 1,
      "byteOffset": 14848,
      "componentType": 5126,
      "count": 624,
      "max": [
        193.0,
        96.5
      ],
      "min": [
        -144.75,
        -96.5
      ],
      "type": "VEC2"
    },
    {
      "bufferView": 0,
      "byteOffset": 20544,
      "componentType": 5125,
      "count": 3072,
      "type": "SCALAR"
    },
    {
      "bufferView": 2,
      "byteOffset": 59520,
      "componentType": 5126,
      "count": 228,
      "max": [
        -440.7632141113281,
        -450.0,
        404.954833984375
      ],
      "min": [
        -453.5303649902344,
        -2204.0,
        -404.954833984375
      ],
      "type": "VEC3"
    },
    {
      "bufferView": 2,
      "byteOffset": 62256,
      "componentType": 5126,
      "count": 228,
      "max": [
        0.998660147190094,
        1.0,
        0.9924746751785278
      ],
      "min": [
        -0.999196469783783,
        -1.0,
        -0.9924746751785278
      ],
      "type": "VEC3"
    },
    {
      "bufferView": 1,
      "byteOffset": 19840,
      "componentType": 5126,
      "count": 228,
      "max": [
        0.5638160109519958,
        2.0943949222564697
      ],
      "min": [
        -0.6000000238418579,
        -1.6755160093307495
      ],
      "type": "VEC2"
    },
    {
      "bufferView": 0,
      "byteOffset": 32832,
      "componentType": 5125,
      "count": 648,
      "type": "SCALAR"
    },
    {
      "bufferView": 2,
      "byteOffset": 64992,
      "componentType": 5126,
      "count": 9387,
      "max": [
        493.0,
        -0.0,
        480.0
      ],
      "min": [
        -493.0,
        -2302.0,
        -493.0
      ],
      "type": "VEC3"
    },
    {
      "bufferView": 2,
      "byteOffset": 177636,
      "componentType": 5126,
      "count": 9387,
      "max": [
        1.0,
        1.0,
        1.0
      ],
      "min": [
        -1.0,
        -1.0,
        -1.0
      ],
      "type": "VEC3"
    },
    {
      "bufferView": 1,
      "byteOffset": 21664,
      "componentType": 5126,
      "count": 9387,
      "max": [
        75.9842529296875,
        76.77165222167969
      ],
      "min": [
        -76.77165222167969,
        -19.15354347229004
      ],
      "type": "VEC2"
    },
    {
      "bufferView": 0,
      "byteOffset": 35424,
      "componentType": 5125,
      "count": 47094,
      "type": "SCALAR"
    },
    {
      "bufferView": 2,
      "byteOffset": 290280,
      "componentType": 5126,
      "count": 6530,
      "max": [
        440.0,
        -350.0,
        400.0
      ],
      "min": [
        -440.0,
        -2302.0,
        -434.0
      ],
      "type": "VEC3"
    },
    {
      "bufferView": 2,
      "byteOffset": 368640,
      "componentType": 5126,
      "count": 6530,
      "max": [
        1.0,
        1.0,
        1.0
      ],
      "min": [
        -1.0,
        -1.0,
        -1.0
      ],
      "type": "VEC3"
    },
    {
      "bufferView": 1,
      "byteOffset": 96760,
      "componentType": 5126,
      "count": 6530,
      "max": [
        76.77165222167969,
        76.77165222167969
      ],
      "min": [
        -76.77165222167969,
        -0.6692910194396973
      ],
      "type": "VEC2"
    },
    {
      "bufferView": 0,
      "byteOffset": 223800,
      "componentType": 5125,
      "count": 35958,
      "type": "SCALAR"
    }
  ],
  "asset": {
    "extras": {
      "author": "sara3dbear (https://sketchfab.com/sara3dbear)",
      "license": "CC-BY-4.0 (http://creativecommons.org/licenses/by/4.0/)",
      "source": "https://sketchfab.com/3d-models/vitrine-a24c89912e8849a0865eaed0020c1515",
      "title": "Vitrine"
    },
    "generator": "Sketchfab-12.68.0",
    "version": "2.0"
  },
  "bufferViews": [
    {
      "buffer": 0,
      "byteLength": 367632,
      "name": "floatBufferViews",
      "target": 34963
    },
    {
      "buffer": 0,
      "byteLength": 149000,
      "byteOffset": 367632,
      "byteStride": 8,
      "name": "floatBufferViews",
      "target": 34962
    },
    {
      "buffer": 0,
      "byteLength": 447000,
      "byteOffset": 516632,
      "byteStride": 12,
      "name": "floatBufferViews",
      "target": 34962
    }
  ],
  "buffers": [
    {
      "byteLength": 963632,
      "uri": "scene.bin"
    }
  ],
  "images": [
    {
      "uri": "textures/255255255_baseColor.jpeg"
    }
  ],
  "materials": [
    {
      "doubleSided": true,
      "name": "254254255",
      "pbrMetallicRoughness": {
        "baseColorFactor": [
          0.996078,
          0.996078,
          1.0,
          1.0
        ],
        "metallicFactor": 0.0,
        "roughnessFactor": 0.439705
      }
    },
    {
      "doubleSided": true,
      "name": "176176176",
      "pbrMetallicRoughness": {
        "baseColorFactor": [
          0.690196,
          0.690196,
          0.690196,
          1.0
        ],
        "metallicFactor": 0.0,
        "roughnessFactor": 0.62394
      }
    },
    {
      "doubleSided": true,
      "name": "176176176_1",
      "pbrMetallicRoughness": {
        "baseColorFactor": [
          0.690196,
          0.690196,
          0.690196,
          1.0
        ],
        "metallicFactor": 0.0,
        "roughnessFactor": 0.62394
      }
    },
    {
      "doubleSided": true,
      "name": "191191191",
      "pbrMetallicRoughness": {
        "baseColorFactor": [
          0.74902,
          0.74902,
          0.74902,
          1.0
        ],
        "metallicFactor": 0.0
      }
    },
    {
      "alphaMode": "BLEND",
      "doubleSided": true,
      "name": "204204204",
      "pbrMetallicRoughness": {
        "baseColorFactor": [
          0.8,
          0.8,
          0.8,
          0.46
        ],
        "metallicFactor": 0.0,
        "roughnessFactor": 0.437659
      }
    },
    {
      "doubleSided": true,
      "name": "22911513",
      "pbrMetallicRoughness": {
        "baseColorFactor": [
          0.898039,
          0.45098,
          0.05098,
          1.0
        ],
        "metallicFactor": 0.0,
        "roughnessFactor": 0.62394
      }
    },
    {
      "doubleSided": true,
      "name": "255255255",
      "pbrMetallicRoughness": {
        "baseColorTexture": {
          "index": 0
        },
        "metallicFactor": 0.0
      }
    }
  ],
  "meshes": [
    {
      "name": "Object_0",
      "primitives": [
        {
          "attributes": {
            "NORMAL": 1,
            "POSITION": 0,
            "TEXCOORD_0": 2
          },
          "indices": 3,
          "material": 0,
          "mode": 4
        }
      ]
    },
    {
      "name": "Object_1",
      "primitives": [
        {
          "attributes": {
            "NORMAL": 5,
            "POSITION": 4,
            "TEXCOORD_0": 6
          },
          "indices": 7,
          "material": 1,
          "mode": 4
        }
      ]
    },
    {
      "name": "Object_2",
      "primitives": [
        {
          "attributes": {
            "NORMAL": 9,
            "POSITION": 8,
            "TEXCOORD_0": 10
          },
          "indices": 11,
          "material": 2,
          "mode": 4
        }
      ]
    },
    {
      "name": "Object_3",
      "primitives": [
        {
          "attributes": {
            "NORMAL": 13,
            "POSITION": 12,
            "TEXCOORD_0": 14
          },
          "indices": 15,
          "material": 3,
          "mode": 4
        }
      ]
    },
    {
      "name": "Object_4",
      "primitives": [
        {
          "attributes": {
            "NORMAL": 17,
            "POSITION": 16,
            "TEXCOORD_0": 18
          },
          "indices": 19,
          "material": 4,
          "mode": 4
        }
      ]
    },
    {
      "name": "Object_5",
      "primitives": [
        {
          "attributes": {
            "NORMAL": 21,
            "POSITION": 20,
            "TEXCOORD_0": 22
          },
          "indices": 23,
          "material": 5,
          "mode": 4
        }
      ]
    },
    {
      "name": "Object_6",
      "primitives": [
        {
          "attributes": {
            "NORMAL": 25,
            "POSITION": 24,
            "TEXCOORD_0": 26
          },
          "indices": 27,
          "material": 6,
          "mode": 4
        }
      ]
    },
    {
      "name": "Object_7",
      "primitives": [
        {
          "attributes": {
            "NORMAL": 29,
            "POSITION": 28,
            "TEXCOORD_0": 30
          },
          "indices": 31,
          "material": 6,
          "mode": 4
        }
      ]
    }
  ],
  "nodes": [
    {
      "children": [
        1
      ],
      "matrix": [
        1.0,
        0.0,
        0.0,
        0.0,
        0.0,
        2.220446049250313e-16,
        -1.0,
        0.0,
        0.0,
        1.0,
        2.220446049250313e-16,
        0.0,
        0.0,
        0.0,
        0.0,
        1.0
      ],
      "name": "Sketchfab_model"
    },
    {
      "children": [
        2
      ],
      "name": "root"
    },
    {
      "children": [
        3
      ],
      "matrix": [
        1.0,
        0.0,
        0.0,
        0.0,
        0.0,
        2.220446049250313e-16,
        1.0,
        0.0,
        0.0,
        -1.0,
        2.220446049250313e-16,
        0.0,
        0.0,
        0.0,
        0.0,
        1.0
      ],
      "name": "GLTF_SceneRootNode"
    },
    {
      "children": [
        4
      ],
      "matrix": [
        1.0,
        0.0,
        0.0,
        0.0,
        0.0,
        -1.0,
        -4.440892098500626e-16,
        0.0,
        0.0,
        4.440892098500626e-16,
        -1.0,
        0.0,
        0.0,
        -1157.51025390625,
        1144.504638671875,
        1.0
      ],
      "name": "Sketchfab_model_0"
    },
    {
      "children": [
        5,
        7,
        9,
        11,
        13,
        15,
        17,
        19
      ],
      "name": "3_Vitrine.obj.cleaner.materialmerger.gles_1"
    },
    {
      "children": [
        6
      ],
      "name": "Object_2_2"
    },
    {
      "mesh": 0,
      "name": "Object_6"
    },
    {
      "children": [
        8
      ],
      "name": "Object_3_3"
    },
    {
      "mesh": 1,
      "name": "Object_8"
    },
    {
      "children": [
        10
      ],
      "name": "Object_4_4"
    },
    {
      "mesh": 2,
      "name": "Object_10"
    },
    {
      "children": [
        12
      ],
      "name": "Object_5_5"
    },
    {
      "mesh": 3,
      "name": "Object_12"
    },
    {
      "children": [
        14
      ],
      "name": "Object_6_6"
    },
    {
      "mesh": 4,
      "name": "Object_14"
    },
    {
      "children": [
        16
      ],
      "name": "Object_7_7"
    },
    {
      "mesh": 5,
      "name": "Object_16"
    },
    {
      "children": [
        18
      ],
      "name": "Object_8_8"
    },
    {
      "mesh": 6,
      "name": "Object_18"
    },
    {
      "children": [
        20
      ],
      "name": "Object_9_9"
    },
    {
      "mesh": 7,
      "name": "Object_20"
    }
  ],
  "samplers": [
    {
      "magFilter": 9729,
      "minFilter": 9987,
      "wrapS": 10497,
      "wrapT": 10497
    }
  ],
  "scene": 0,
  "scenes": [
    {
      "name": "Sketchfab_Scene",
      "nodes": [
        0
      ]
    }
  ],
  "textures": [
    {
      "sampler": 0,
      "source": 0
    }
  ]
}
