{
  "accessors": [
    {
      "bufferView": 2,
      "componentType": 5126,
      "count": 46,
      "max": [
        0.49036064743995667,
        0.24683710932731628,
        -0.39669498801231384
      ],
      "min": [
        0.4580502212047577,
        0.24250394105911255,
        -0.437346875667572
      ],
      "type": "VEC3"
    },
    {
      "bufferView": 2,
      "byteOffset": 552,
      "componentType": 5126,
      "count": 46,
      "max": [
        0.20729339122772217,
        0.9999563694000244,
        0.21310827136039734
      ],
      "min": [
        -0.09469880163669586,
        0.9644691944122314,
        -0.18219467997550964
      ],
      "type": "VEC3"
    },
    {
      "bufferView": 3,
      "componentType": 5126,
      "count": 46,
      "max": [
        -0.12214712798595428,
        0.1997459977865219,
        0.9904322624206543,
        -1.0
      ],
      "min": [
        -0.14970064163208008,
        -0.20792174339294434,
        0.9666221737861633,
        -1.0
      ],
      "type": "VEC4"
    },
    {
      "bufferView": 1,
      "componentType": 5126,
      "count": 46,
      "max": [
        0.5957503914833069,
        0.5186129808425903
      ],
      "min": [
        0.48372629284858704,
        0.43517959117889404
      ],
      "type": "VEC2"
    },
    {
      "bufferView": 1,
      "byteOffset": 368,
      "componentType": 5126,
      "count": 46,
      "max": [
        0.5957503914833069,
        0.5186129808425903
      ],
      "min": [
        0.48372629284858704,
        0.43517959117889404
      ],
      "type": "VEC2"
    },
    {
      "bufferView": 1,
      "byteOffset": 736,
      "componentType": 5126,
      "count": 46,
      "max": [
        0.5957503914833069,
        0.5186129808425903
      ],
      "min": [
        0.48372629284858704,
        0.43517959117889404
      ],
      "type": "VEC2"
    },
    {
      "bufferView": 0,
      "componentType": 5125,
      "count": 165,
      "type": "SCALAR"
    },
    {
      "bufferView": 2,
      "byteOffset": 1104,
      "componentType": 5126,
      "count": 1874,
      "max": [
        0.6018507480621338,
        0.24739189445972443,
        -0.2037889063358307
      ],
      "min": [
        0.34704920649528503,
        0.16222774982452393,
        -0.4601898491382599
      ],
      "type": "VEC3"
    },
    {
      "bufferView": 2,
      "byteOffset": 23592,
      "componentType": 5126,
      "count": 1874,
      "max": [
        1.0,
        0.9999563694000244,
        1.0
      ],
      "min": [
        -1.0,
        -1.0,
        -1.0
      ],
      "type": "VEC3"
    },
    {
      "bufferView": 3,
      "byteOffset": 736,
      "componentType": 5126,
      "count": 1874,
      "max": [
        0.9999209642410278,
        1.0,
        0.9998570680618286,
        -1.0
      ],
      "min": [
        -0.71041339635849,
        -1.0,
        -0.9998517036437988,
        -1.0
      ],
      "type": "VEC4"
    },
    {
      "bufferView": 1,
      "byteOffset": 1104,
      "componentType": 5126,
      "count": 1874,
      "max": [
        1.0,
        1.0
      ],
      "min": [
        -3.43814114955876e-08,
        0.15711385011672974
      ],
      "type": "VEC2"
    },
    {
      "bufferView": 1,
      "byteOffset": 16096,
      "componentType": 5126,
      "count": 1874,
      "max": [
        1.0,
        1.0
      ],
      "min": [
        -3.43814114955876e-08,
        0.15711385011672974
      ],
      "type": "VEC2"
    },
    {
      "bufferView": 1,
      "byteOffset": 31088,
      "componentType": 5126,
      "count": 1874,
      "max": [
        1.0,
        1.0
      ],
      "min": [
        -3.43814114955876e-08,
        0.15711385011672974
      ],
      "type": "VEC2"
    },
    {
      "bufferView": 0,
      "byteOffset": 660,
      "componentType": 5125,
      "count": 8445,
      "type": "SCALAR"
    },
    {
      "bufferView": 2,
      "byteOffset": 46080,
      "componentType": 5126,
      "count": 178,
      "max": [
        0.5764186382293701,
        0.23750507831573486,
        -0.3116566836833954
      ],
      "min": [
        0.5469624996185303,
        0.23081228137016296,
        -0.35230156779289246
      ],
      "type": "VEC3"
    },
    {
      "bufferView": 2,
      "byteOffset": 48216,
      "componentType": 5126,
      "count": 178,
      "max": [
        0.4210924506187439,
        0.9998486042022705,
        0.2050906866788864
      ],
      "min": [
        -0.0010000065667554736,
        0.9050837755203247,
        -0.20750144124031067
      ],
      "type": "VEC3"
    },
    {
      "bufferView": 3,
      "byteOffset": 30720,
      "componentType": 5126,
      "count": 178,
      "max": [
        -0.0014699618332087994,
        0.2558858096599579,
        0.9991492033004761,
        -1.0
      ],
      "min": [
        -0.1500045657157898,
        -0.18573111295700073,
        0.9585376381874084,
        -1.0
      ],
      "type": "VEC4"
    },
    {
      "bufferView": 1,
      "byteOffset": 46080,
      "componentType": 5126,
      "count": 178,
      "max": [
        0.5966526865959167,
        0.9336534738540649
      ],
      "min": [
        0.4855758547782898,
        0.8463433384895325
      ],
      "type": "VEC2"
    },
    {
      "bufferView": 1,
      "byteOffset": 47504,
      "componentType": 5126,
      "count": 178,
      "max": [
        0.5966526865959167,
        0.9336534738540649
      ],
      "min": [
        0.4855758547782898,
        0.8463433384895325
      ],
      "type": "VEC2"
    },
    {
      "bufferView": 1,
      "byteOffset": 48928,
      "componentType": 5126,
      "count": 178,
      "max": [
        0.5966526865959167,
        0.9336534738540649
      ],
      "min": [
        0.4855758547782898,
        0.8463433384895325
      ],
      "type": "VEC2"
    },
    {
      "bufferView": 0,
      "byteOffset": 34440,
      "componentType": 5125,
      "count": 627,
      "type": "SCALAR"
    },
    {
      "bufferView": 2,
      "byteOffset": 50352,
      "componentType": 5126,
      "count": 71,
      "max": [
        0.49196678400039673,
        0.2468680739402771,
        -0.22740548849105835
      ],
      "min": [
        0.45611706376075745,
        0.24228481948375702,
        -0.2680503726005554
      ],
      "type": "VEC3"
    },
    {
      "bufferView": 2,
      "byteOffset": 51204,
      "componentType": 5126,
      "count": 71,
      "max": [
        0.23380433022975922,
        0.9999226331710815,
        0.19469203054904938
      ],
      "min": [
        -0.12320657819509506,
        0.9622016549110413,
        -0.21569766104221344
      ],
      "type": "VEC3"
    },
    {
      "bufferView": 3,
      "byteOffset": 33568,
      "componentType": 5126,
      "count": 71,
      "max": [
        -0.11961764842271805,
        0.22327649593353271,
        0.9904775023460388,
        -1.0
      ],
      "min": [
        -0.14946754276752472,
        -0.19986039400100708,
        0.9673879146575928,
        -1.0
      ],
      "type": "VEC4"
    },
    {
      "bufferView": 1,
      "byteOffset": 50352,
      "componentType": 5126,
      "count": 71,
      "max": [
        0.5943349003791809,
        0.7207398414611816
      ],
      "min": [
        0.48203352093696594,
        0.6281797885894775
      ],
      "type": "VEC2"
    },
    {
      "bufferView": 1,
      "byteOffset": 50920,
      "componentType": 5126,
      "count": 71,
      "max": [
        0.5943349003791809,
        0.7207398414611816
      ],
      "min": [
        0.48203352093696594,
        0.6281797885894775
      ],
      "type": "VEC2"
    },
    {
      "bufferView": 1,
      "byteOffset": 51488,
      "componentType": 5126,
      "count": 71,
      "max": [
        0.5943349003791809,
        0.7207398414611816
      ],
      "min": [
        0.48203352093696594,
        0.6281797885894775
      ],
      "type": "VEC2"
    },
    {
      "bufferView": 0,
      "byteOffset": 36948,
      "componentType": 5125,
      "count": 273,
      "type": "SCALAR"
    },
    {
      "bufferView": 2,
      "byteOffset": 52056,
      "componentType": 5126,
      "count": 55,
      "max": [
        0.40605172514915466,
        0.24755729734897614,
        -0.3128131926059723
      ],
      "min": [
        0.37220001220703125,
        0.24450859427452087,
        -0.35345810651779175
      ],
      "type": "VEC3"
    },
    {
      "bufferView": 2,
      "byteOffset": 52716,
      "componentType": 5126,
      "count": 55,
      "max": [
        0.11780394613742828,
        0.9999998807907104,
        0.18269729614257813
      ],
      "min": [
        -0.11780394613742828,
        0.979732871055603,
        -0.18269729614257813
      ],
      "type": "VEC3"
    },
    {
      "bufferView": 3,
      "byteOffset": 34704,
      "componentType": 5126,
      "count": 55,
      "max": [
        -0.10887293517589569,
        0.19076982140541077,
        0.9922831654548645,
        -1.0
      ],
      "min": [
        -0.13529004156589508,
        -0.19221210479736328,
        0.9719831347465515,
        -1.0
      ],
      "type": "VEC4"
    },
    {
      "bufferView": 1,
      "byteOffset": 52056,
      "componentType": 5126,
      "count": 55,
      "max": [
        0.37922173738479614,
        0.5065615177154541
      ],
      "min": [
        0.2636379599571228,
        0.40830087661743164
      ],
      "type": "VEC2"
    },
    {
      "bufferView": 1,
      "byteOffset": 52496,
      "componentType": 5126,
      "count": 55,
      "max": [
        0.37922173738479614,
        0.5065615177154541
      ],
      "min": [
        0.2636379599571228,
        0.40830087661743164
      ],
      "type": "VEC2"
    },
    {
      "bufferView": 1,
      "byteOffset": 52936,
      "componentType": 5126,
      "count": 55,
      "max": [
        0.37922173738479614,
        0.5065615177154541
      ],
      "min": [
        0.2636379599571228,
        0.40830087661743164
      ],
      "type": "VEC2"
    },
    {
      "bufferView": 0,
      "byteOffset": 38040,
      "componentType": 5125,
      "count": 198,
      "type": "SCALAR"
    },
    {
      "bufferView": 2,
      "byteOffset": 53376,
      "componentType": 5126,
      "count": 3201,
      "max": [
        -0.3508486747741699,
        0.213495135307312,
        -0.22773277759552002
      ],
      "min": [
        -0.5894790291786194,
        0.10323406755924225,
        -0.4669504165649414
      ],
      "type": "VEC3"
    },
    {
      "bufferView": 2,
      "byteOffset": 91788,
      "componentType": 5126,
      "count": 3201,
      "max": [
        0.9977974891662598,
        0.9999974966049194,
        0.9925752878189087
      ],
      "min": [
        -0.9995651841163635,
        -0.9998217225074768,
        -0.9998151659965515
      ],
      "type": "VEC3"
    },
    {
      "bufferView": 3,
      "byteOffset": 35584,
      "componentType": 5126,
      "count": 3201,
      "max": [
        0.921995222568512,
        0.9964529871940613,
        0.7895295023918152,
        -1.0
      ],
      "min": [
        -0.8596299886703491,
        -0.9990695118904114,
        -0.9400978684425354,
        -1.0
      ],
      "type": "VEC4"
    },
    {
      "bufferView": 1,
      "byteOffset": 53376,
      "componentType": 5126,
      "count": 3201,
      "max": [
        0.9934767484664917,
        1.0
      ],
      "min": [
        -1.0881996104217251e-07,
        1.1920928955078125e-07
      ],
      "type": "VEC2"
    },
    {
      "bufferView": 1,
      "byteOffset": 78984,
      "componentType": 5126,
      "count": 3201,
      "max": [
        0.9934767484664917,
        1.0
      ],
      "min": [
        -1.0881996104217251e-07,
        1.1920928955078125e-07
      ],
      "type": "VEC2"
    },
    {
      "bufferView": 1,
      "byteOffset": 104592,
      "componentType": 5126,
      "count": 3201,
      "max": [
        0.9934767484664917,
        1.0
      ],
      "min": [
        -1.0881996104217251e-07,
        1.1920928955078125e-07
      ],
      "type": "VEC2"
    },
    {
      "bufferView": 0,
      "byteOffset": 38832,
      "componentType": 5125,
      "count": 14490,
      "type": "SCALAR"
    },
    {
      "bufferView": 2,
      "byteOffset": 130200,
      "componentType": 5126,
      "count": 1170,
      "max": [
        0.5895732045173645,
        0.5587461590766907,
        0.15885116159915924
      ],
      "min": [
        -0.5895732641220093,
        0.4045848250389099,
        -0.0024487674236297607
      ],
      "type": "VEC3"
    },
    {
      "bufferView": 2,
      "byteOffset": 144240,
      "componentType": 5126,
      "count": 1170,
      "max": [
        1.0,
        0.9526557326316833,
        0.9999557733535767
      ],
      "min": [
        -1.0,
        -0.9986314177513123,
        -0.9978890419006348
      ],
      "type": "VEC3"
    },
    {
      "bufferView": 1,
      "byteOffset": 130200,
      "componentType": 5126,
      "count": 1170,
      "max": [
        0.9086558818817139,
        1.0
      ],
      "min": [
        8.568130205333091e-09,
        0.0
      ],
      "type": "VEC2"
    },
    {
      "bufferView": 0,
      "byteOffset": 96792,
      "componentType": 5125,
      "count": 3840,
      "type": "SCALAR"
    },
    {
      "bufferView": 2,
      "byteOffset": 158280,
      "componentType": 5126,
      "count": 1899,
      "max": [
        0.5895732045173645,
        0.5722371339797974,
        0.15230385959148407
      ],
      "min": [
        -0.5895732641220093,
        0.4520544409751892,
        -0.0024487674236297607
      ],
      "type": "VEC3"
    },
    {
      "bufferView": 2,
      "byteOffset": 181068,
      "componentType": 5126,
      "count": 1899,
      "max": [
        0.9518850445747375,
        0.999397873878479,
        0.9589221477508545
      ],
      "min": [
        -0.9518850445747375,
        0.0294997189193964,
        -0.9941413402557373
      ],
      "type": "VEC3"
    },
    {
      "bufferView": 3,
      "byteOffset": 86800,
      "componentType": 5126,
      "count": 1899,
      "max": [
        0.9499439001083374,
        0.9990699887275696,
        0.9994378685951233,
        1.0
      ],
      "min": [
        -0.7702674865722656,
        -0.9993541836738586,
        -0.9991560578346252,
        -1.0
      ],
      "type": "VEC4"
    },
    {
      "bufferView": 1,
      "byteOffset": 139560,
      "componentType": 5126,
      "count": 1899,
      "max": [
        0.8981717228889465,
        1.0
      ],
      "min": [
        -1.9430670405995443e-09,
        0.07463294267654419
      ],
      "type": "VEC2"
    },
    {
      "bufferView": 0,
      "byteOffset": 112152,
      "componentType": 5125,
      "count": 8850,
      "type": "SCALAR"
    },
    {
      "bufferView": 2,
      "byteOffset": 203856,
      "componentType": 5126,
      "count": 1967,
      "max": [
        0.5869620442390442,
        0.5301954746246338,
        0.021622877568006516
      ],
      "min": [
        -0.5869620442390442,
        0.4147501289844513,
        -0.2439294010400772
      ],
      "type": "VEC3"
    },
    {
      "bufferView": 2,
      "byteOffset": 227460,
      "componentType": 5126,
      "count": 1967,
      "max": [
        0.990042507648468,
        0.9995731711387634,
        0.9789837598800659
      ],
      "min": [
        -0.9900489449501038,
        -0.3058145046234131,
        -0.9791783094406128
      ],
      "type": "VEC3"
    },
    {
      "bufferView": 3,
      "byteOffset": 117184,
      "componentType": 5126,
      "count": 1967,
      "max": [
        0.9999341368675232,
        0.9951796531677246,
        0.9210976958274841,
        1.0
      ],
      "min": [
        -0.7827221751213074,
        -0.9945501089096069,
        -0.9934881925582886,
        -1.0
      ],
      "type": "VEC4"
    },
    {
      "bufferView": 1,
      "byteOffset": 154752,
      "componentType": 5126,
      "count": 1967,
      "max": [
        0.9577224254608154,
        1.0
      ],
      "min": [
        1.0240118974991219e-08,
        1.1920928955078125e-07
      ],
      "type": "VEC2"
    },
    {
      "bufferView": 0,
      "byteOffset": 147552,
      "componentType": 5125,
      "count": 9030,
      "type": "SCALAR"
    },
    {
      "bufferView": 2,
      "byteOffset": 251064,
      "componentType": 5126,
      "count": 3992,
      "max": [
        0.5875144004821777,
        0.5278990268707275,
        0.021843086928129196
      ],
      "min": [
        -0.587514340877533,
        0.34347063302993774,
        -0.2439294010400772
      ],
      "type": "VEC3"
    },
    {
      "bufferView": 2,
      "byteOffset": 298968,
      "componentType": 5126,
      "count": 3992,
      "max": [
        0.9999151825904846,
        0.9679494500160217,
        0.9998830556869507
      ],
      "min": [
        -0.999935507774353,
        -0.9994206428527832,
        -0.9624301195144653
      ],
      "type": "VEC3"
    },
    {
      "bufferView": 1,
      "byteOffset": 170488,
      "componentType": 5126,
      "count": 3992,
      "max": [
        0.9451586008071899,
        0.9978855848312378
      ],
      "min": [
        3.5802829589925977e-09,
        0.0034955739974975586
      ],
      "type": "VEC2"
    },
    {
      "bufferView": 0,
      "byteOffset": 183672,
      "componentType": 5125,
      "count": 16386,
      "type": "SCALAR"
    },
    {
      "bufferView": 2,
      "byteOffset": 346872,
      "componentType": 5126,
      "count": 1720,
      "max": [
        -0.12472420930862427,
        0.32826194167137146,
        0.2661255896091461
      ],
      "min": [
        -0.32005932927131653,
        0.13319459557533264,
        0.1710834801197052
      ],
      "type": "VEC3"
    },
    {
      "bufferView": 2,
      "byteOffset": 367512,
      "componentType": 5126,
      "count": 1720,
      "max": [
        0.9887450337409973,
        0.9878350496292114,
        0.999605119228363
      ],
      "min": [
        -0.9887450337409973,
        -0.9952157735824585,
        -0.8976043462753296
      ],
      "type": "VEC3"
    },
    {
      "bufferView": 3,
      "byteOffset": 148656,
      "componentType": 5126,
      "count": 1720,
      "max": [
        0.8614857196807861,
        0.9946714043617249,
        0.9880853891372681,
        -1.0
      ],
      "min": [
        -0.5661222338676453,
        -0.5645275712013245,
        -0.9951664209365845,
        -1.0
      ],
      "type": "VEC4"
    },
    {
      "bufferView": 1,
      "byteOffset": 202424,
      "componentType": 5126,
      "count": 1720,
      "max": [
        0.9022963047027588,
        1.0
      ],
      "min": [
        -5.3836977542687237e-08,
        0.08274900913238525
      ],
      "type": "VEC2"
    },
    {
      "bufferView": 1,
      "byteOffset": 216184,
      "componentType": 5126,
      "count": 1720,
      "max": [
        0.9022963047027588,
        1.0
      ],
      "min": [
        -5.3836977542687237e-08,
        0.08274900913238525
      ],
      "type": "VEC2"
    },
    {
      "bufferView": 1,
      "byteOffset": 229944,
      "componentType": 5126,
      "count": 1720,
      "max": [
        0.9022963047027588,
        1.0
      ],
      "min": [
        -5.3836977542687237e-08,
        0.08274900913238525
      ],
      "type": "VEC2"
    },
    {
      "bufferView": 0,
      "byteOffset": 249216,
      "componentType": 5125,
      "count": 8256,
      "type": "SCALAR"
    },
    {
      "bufferView": 2,
      "byteOffset": 388152,
      "componentType": 5126,
      "count": 7910,
      "max": [
        -0.14388275146484375,
        0.31443771719932556,
        0.2991851568222046
      ],
      "min": [
        -0.3009008765220642,
        0.15740996599197388,
        0.25854673981666565
      ],
      "type": "VEC3"
    },
    {
      "bufferView": 2,
      "byteOffset": 483072,
      "componentType": 5126,
      "count": 7910,
      "max": [
        0.9999864101409912,
        0.9996874928474426,
        0.9986314177513123
      ],
      "min": [
        -0.9999864101409912,
        -0.9998655319213867,
        -0.9981864094734192
      ],
      "type": "VEC3"
    },
    {
      "bufferView": 1,
      "byteOffset": 243704,
      "componentType": 5126,
      "count": 7910,
      "max": [
        0.9921786785125732,
        1.0
      ],
      "min": [
        2.0595280147972517e-08,
        5.960464477539063e-08
      ],
      "type": "VEC2"
    },
    {
      "bufferView": 1,
      "byteOffset": 306984,
      "componentType": 5126,
      "count": 7910,
      "max": [
        0.9921786785125732,
        1.0
      ],
      "min": [
        2.0595280147972517e-08,
        5.960464477539063e-08
      ],
      "type": "VEC2"
    },
    {
      "bufferView": 0,
      "byteOffset": 282240,
      "componentType": 5125,
      "count": 14400,
      "type": "SCALAR"
    },
    {
      "bufferView": 2,
      "byteOffset": 577992,
      "componentType": 5126,
      "count": 1720,
      "max": [
        0.32005932927131653,
        0.32826194167137146,
        0.2661255896091461
      ],
      "min": [
        0.12472422420978546,
        0.13319459557533264,
        0.1710834801197052
      ],
      "type": "VEC3"
    },
    {
      "bufferView": 2,
      "byteOffset": 598632,
      "componentType": 5126,
      "count": 1720,
      "max": [
        0.9887450337409973,
        0.9878350496292114,
        0.999605119228363
      ],
      "min": [
        -0.9887450337409973,
        -0.9952157735824585,
        -0.8976043462753296
      ],
      "type": "VEC3"
    },
    {
      "bufferView": 3,
      "byteOffset": 176176,
      "componentType": 5126,
      "count": 1720,
      "max": [
        0.8614850640296936,
        0.9934475421905518,
        0.9880850315093994,
        -1.0
      ],
      "min": [
        -0.5661340951919556,
        -0.5645241737365723,
        -0.9951663613319397,
        -1.0
      ],
      "type": "VEC4"
    },
    {
      "bufferView": 1,
      "byteOffset": 370264,
      "componentType": 5126,
      "count": 1720,
      "max": [
        0.8752352595329285,
        1.0
      ],
      "min": [
        -2.3963179884844976e-08,
        0.0827491283416748
      ],
      "type": "VEC2"
    },
    {
      "bufferView": 1,
      "byteOffset": 384024,
      "componentType": 5126,
      "count": 1720,
      "max": [
        0.8752352595329285,
        1.0
      ],
      "min": [
        -2.3963179884844976e-08,
        0.0827491283416748
      ],
      "type": "VEC2"
    },
    {
      "bufferView": 1,
      "byteOffset": 397784,
      "componentType": 5126,
      "count": 1720,
      "max": [
        0.8752352595329285,
        1.0
      ],
      "min": [
        -2.3963179884844976e-08,
        0.0827491283416748
      ],
      "type": "VEC2"
    },
    {
      "bufferView": 0,
      "byteOffset": 339840,
      "componentType": 5125,
      "count": 8256,
      "type": "SCALAR"
    },
    {
      "bufferView": 2,
      "byteOffset": 619272,
      "componentType": 5126,
      "count": 7910,
      "max": [
        0.3009008765220642,
        0.31443771719932556,
        0.2991851568222046
      ],
      "min": [
        0.14388273656368256,
        0.15740996599197388,
        0.25854673981666565
      ],
      "type": "VEC3"
    },
    {
      "bufferView": 2,
      "byteOffset": 714192,
      "componentType": 5126,
      "count": 7910,
      "max": [
        0.9999864101409912,
        0.9996874928474426,
        0.9986314177513123
      ],
      "min": [
        -0.9999864101409912,
        -0.9998655319213867,
        -0.9981864094734192
      ],
      "type": "VEC3"
    },
    {
      "bufferView": 1,
      "byteOffset": 411544,
      "componentType": 5126,
      "count": 7910,
      "max": [
        0.9921337962150574,
        1.0
      ],
      "min": [
        2.0349062879176927e-08,
        0.0
      ],
      "type": "VEC2"
    },
    {
      "bufferView": 1,
      "byteOffset": 474824,
      "componentType": 5126,
      "count": 7910,
      "max": [
        0.9921337962150574,
        1.0
      ],
      "min": [
        2.0349062879176927e-08,
        0.0
      ],
      "type": "VEC2"
    },
    {
      "bufferView": 0,
      "byteOffset": 372864,
      "componentType": 5125,
      "count": 14400,
      "type": "SCALAR"
    },
    {
      "bufferView": 2,
      "byteOffset": 809112,
      "componentType": 5126,
      "count": 1331,
      "max": [
        0.5019137263298035,
        0.05807019770145416,
        -0.024423465132713318
      ],
      "min": [
        -0.5019137859344482,
        -0.26407840847969055,
        -0.24268317222595215
      ],
      "type": "VEC3"
    },
    {
      "bufferView": 2,
      "byteOffset": 825084,
      "componentType": 5126,
      "count": 1331,
      "max": [
        0.9838391542434692,
        0.7340824604034424,
        0.6764207482337952
      ],
      "min": [
        -0.9838391542434692,
        -0.7436146140098572,
        -0.9986159205436707
      ],
      "type": "VEC3"
    },
    {
      "bufferView": 3,
      "byteOffset": 203696,
      "componentType": 5126,
      "count": 1331,
      "max": [
        0.9998652935028076,
        0.9992203116416931,
        0.9993773698806763,
        1.0
      ],
      "min": [
        -0.6995744109153748,
        -0.9984692335128784,
        -0.9936466217041016,
        -1.0
      ],
      "type": "VEC4"
    },
    {
      "bufferView": 1,
      "byteOffset": 538104,
      "componentType": 5126,
      "count": 1331,
      "max": [
        0.9964898824691772,
        1.0
      ],
      "min": [
        -1.824831485919276e-08,
        0.03464025259017944
      ],
      "type": "VEC2"
    },
    {
      "bufferView": 0,
      "byteOffset": 430464,
      "componentType": 5125,
      "count": 4617,
      "type": "SCALAR"
    },
    {
      "bufferView": 2,
      "byteOffset": 841056,
      "componentType": 5126,
      "count": 719,
      "max": [
        0.5019137263298035,
        0.05807019770145416,
        -0.024423465132713318
      ],
      "min": [
        -0.5019137859344482,
        -0.26407840847969055,
        -0.24235288798809052
      ],
      "type": "VEC3"
    },
    {
      "bufferView": 2,
      "byteOffset": 849684,
      "componentType": 5126,
      "count": 719,
      "max": [
        0.6777336597442627,
        0.9990394115447998,
        0.7402015328407288
      ],
      "min": [
        -0.6777336597442627,
        -0.9990912079811096,
        -0.7402015328407288
      ],
      "type": "VEC3"
    },
    {
      "bufferView": 3,
      "byteOffset": 224992,
      "componentType": 5126,
      "count": 719,
      "max": [
        0.8061360716819763,
        0.13415494561195374,
        0.7012083530426025,
        -1.0
      ],
      "min": [
        -0.7535182237625122,
        -0.07092984765768051,
        -0.6777265071868896,
        -1.0
      ],
      "type": "VEC4"
    },
    {
      "bufferView": 1,
      "byteOffset": 548752,
      "componentType": 5126,
      "count": 719,
      "max": [
        1.0000001192092896,
        1.0
      ],
      "min": [
        4.315776180874309e-09,
        0.05097144842147827
      ],
      "type": "VEC2"
    },
    {
      "bufferView": 1,
      "byteOffset": 554504,
      "componentType": 5126,
      "count": 719,
      "max": [
        1.0000001192092896,
        1.0
      ],
      "min": [
        4.315776180874309e-09,
        0.05097144842147827
      ],
      "type": "VEC2"
    },
    {
      "bufferView": 1,
      "byteOffset": 560256,
      "componentType": 5126,
      "count": 719,
      "max": [
        1.0000001192092896,
        1.0
      ],
      "min": [
        4.315776180874309e-09,
        0.05097144842147827
      ],
      "type": "VEC2"
    },
    {
      "bufferView": 0,
      "byteOffset": 448932,
      "componentType": 5125,
      "count": 3048,
      "type": "SCALAR"
    },
    {
      "bufferView": 2,
      "byteOffset": 858312,
      "componentType": 5126,
      "count": 1780,
      "max": [
        0.42429593205451965,
        0.000545307993888855,
        -0.11259615421295166
      ],
      "min": [
        -0.42491623759269714,
        -0.2052217721939087,
        -0.21386568248271942
      ],
      "type": "VEC3"
    },
    {
      "bufferView": 2,
      "byteOffset": 879672,
      "componentType": 5126,
      "count": 1780,
      "max": [
        0.8529015779495239,
        0.9998719692230225,
        0.8663952350616455
      ],
      "min": [
        -0.8746795058250427,
        -0.9999114871025085,
        -0.8683494329452515
      ],
      "type": "VEC3"
    },
    {
      "bufferView": 1,
      "byteOffset": 566008,
      "componentType": 5126,
      "count": 1780,
      "max": [
        0.9646598100662231,
        0.2819148898124695
      ],
      "min": [
        -2.1211736367376943e-08,
        0.0014763474464416504
      ],
      "type": "VEC2"
    },
    {
      "bufferView": 0,
      "byteOffset": 461124,
      "componentType": 5125,
      "count": 4659,
      "type": "SCALAR"
    },
    {
      "bufferView": 2,
      "byteOffset": 901032,
      "componentType": 5126,
      "count": 82,
      "max": [
        0.008011863566935062,
        0.4489678144454956,
        0.20727205276489258
      ],
      "min": [
        -0.008011863566935062,
        0.432054728269577,
        0.18847215175628662
      ],
      "type": "VEC3"
    },
    {
      "bufferView": 2,
      "byteOffset": 902016,
      "componentType": 5126,
      "count": 82,
      "max": [
        1.0,
        0.9986314177513123,
        0.9986314177513123
      ],
      "min": [
        -1.0,
        -0.9986314177513123,
        -0.052301645278930664
      ],
      "type": "VEC3"
    },
    {
      "bufferView": 1,
      "byteOffset": 580248,
      "componentType": 5126,
      "count": 82,
      "max": [
        1.0,
        0.9900000095367432
      ],
      "min": [
        0.0,
        0.004987239837646484
      ],
      "type": "VEC2"
    },
    {
      "bufferView": 0,
      "byteOffset": 479760,
      "componentType": 5125,
      "count": 234,
      "type": "SCALAR"
    },
    {
      "bufferView": 2,
      "byteOffset": 903000,
      "componentType": 5126,
      "count": 16,
      "max": [
        0.008011863566935062,
        0.44805648922920227,
        0.18931075930595398
      ],
      "min": [
        -0.008011863566935062,
        0.432054728269577,
        0.18847215175628662
      ],
      "type": "VEC3"
    },
    {
      "bufferView": 2,
      "byteOffset": 903192,
      "componentType": 5126,
      "count": 16,
      "max": [
        0.0,
        -0.052301645278930664,
        -0.9986314177513123
      ],
      "min": [
        0.0,
        -0.052301645278930664,
        -0.9986314177513123
      ],
      "type": "VEC3"
    },
    {
      "bufferView": 1,
      "byteOffset": 580904,
      "componentType": 5126,
      "count": 16,
      "max": [
        0.9900000095367432,
        0.9900000095367432
      ],
      "min": [
        0.5099999904632568,
        0.5099999904632568
      ],
      "type": "VEC2"
    },
    {
      "bufferView": 0,
      "byteOffset": 480696,
      "componentType": 5125,
      "count": 42,
      "type": "SCALAR"
    },
    {
      "bufferView": 2,
      "byteOffset": 903384,
      "componentType": 5126,
      "count": 173,
      "max": [
        0.3175443112850189,
        0.4610484838485718,
        0.21399827301502228
      ],
      "min": [
        0.23054426908493042,
        0.4221232235431671,
        0.11261759698390961
      ],
      "type": "VEC3"
    },
    {
      "bufferView": 2,
      "byteOffset": 905460,
      "componentType": 5126,
      "count": 173,
      "max": [
        0.9844729900360107,
        0.9867514371871948,
        0.9998335838317871
      ],
      "min": [
        -0.9844729900360107,
        -0.9687249660491943,
        -0.9881101250648499
      ],
      "type": "VEC3"
    },
    {
      "bufferView": 3,
      "byteOffset": 236496,
      "componentType": 5126,
      "count": 173,
      "max": [
        1.0,
        0.9991805553436279,
        0.7419500350952148,
        1.0
      ],
      "min": [
        -0.9961681962013245,
        -0.9999991059303284,
        -0.6678624153137207,
        -1.0
      ],
      "type": "VEC4"
    },
    {
      "bufferView": 1,
      "byteOffset": 581032,
      "componentType": 5126,
      "count": 173,
      "max": [
        0.7802122831344604,
        1.0
      ],
      "min": [
        -6.447230305184348e-08,
        0.05995750427246094
      ],
      "type": "VEC2"
    },
    {
      "bufferView": 0,
      "byteOffset": 480864,
      "componentType": 5125,
      "count": 597,
      "type": "SCALAR"
    },
    {
      "bufferView": 2,
      "byteOffset": 907536,
      "componentType": 5126,
      "count": 18,
      "max": [
        0.29173460602760315,
        0.45439445972442627,
        0.21389749646186829
      ],
      "min": [
        0.2563539445400238,
        0.43427273631095886,
        0.21284297108650208
      ],
      "type": "VEC3"
    },
    {
      "bufferView": 2,
      "byteOffset": 907752,
      "componentType": 5126,
      "count": 18,
      "max": [
        0.0,
        0.052301645278930664,
        0.9986314177513123
      ],
      "min": [
        0.0,
        0.052301645278930664,
        0.9986314177513123
      ],
      "type": "VEC3"
    },
    {
      "bufferView": 3,
      "byteOffset": 239264,
      "componentType": 5126,
      "count": 18,
      "max": [
        4.1884920805812445e-24,
        -0.9986313581466675,
        0.05230164900422096,
        -1.0
      ],
      "min": [
        -4.188493263872602e-24,
        -0.9986314177513123,
        0.05230163782835007,
        -1.0
      ],
      "type": "VEC4"
    },
    {
      "bufferView": 1,
      "byteOffset": 582416,
      "componentType": 5126,
      "count": 18,
      "max": [
        0.30184024572372437,
        0.37736040353775024
      ],
      "min": [
        0.19981259107589722,
        0.19820767641067505
      ],
      "type": "VEC2"
    },
    {
      "bufferView": 0,
      "byteOffset": 483252,
      "componentType": 5125,
      "count": 36,
      "type": "SCALAR"
    },
    {
      "bufferView": 2,
      "byteOffset": 907968,
      "componentType": 5126,
      "count": 44,
      "max": [
        0.3175443112850189,
        0.4610484838485718,
        0.209266796708107
      ],
      "min": [
        0.23054426908493042,
        0.4221232235431671,
        0.11261759698390961
      ],
      "type": "VEC3"
    },
    {
      "bufferView": 2,
      "byteOffset": 908496,
      "componentType": 5126,
      "count": 44,
      "max": [
        0.9970770478248596,
        0.993714451789856,
        0.12610416114330292
      ],
      "min": [
        -0.9970770478248596,
        -0.985932469367981,
        -0.5901197791099548
      ],
      "type": "VEC3"
    },
    {
      "bufferView": 3,
      "byteOffset": 239552,
      "componentType": 5126,
      "count": 44,
      "max": [
        0.699487030506134,
        0.9974794983863831,
        0.1261383593082428,
        -1.0
      ],
      "min": [
        -0.9952636361122131,
        -0.999321699142456,
        -0.1326976865530014,
        -1.0
      ],
      "type": "VEC4"
    },
    {
      "bufferView": 1,
      "byteOffset": 582560,
      "componentType": 5126,
      "count": 44,
      "max": [
        0.7802122831344604,
        0.9999999403953552
      ],
      "min": [
        0.0,
        -1.1920928955078125e-07
      ],
      "type": "VEC2"
    },
    {
      "bufferView": 1,
      "byteOffset": 582912,
      "componentType": 5126,
      "count": 44,
      "max": [
        0.7802122831344604,
        0.9999999403953552
      ],
      "min": [
        0.0,
        -1.1920928955078125e-07
      ],
      "type": "VEC2"
    },
    {
      "bufferView": 1,
      "byteOffset": 583264,
      "componentType": 5126,
      "count": 44,
      "max": [
        0.7802122831344604,
        0.9999999403953552
      ],
      "min": [
        0.0,
        -1.1920928955078125e-07
      ],
      "type": "VEC2"
    },
    {
      "bufferView": 0,
      "byteOffset": 483396,
      "componentType": 5125,
      "count": 108,
      "type": "SCALAR"
    },
    {
      "bufferView": 2,
      "byteOffset": 909024,
      "componentType": 5126,
      "count": 294,
      "max": [
        0.076007179915905,
        0.3882141709327698,
        -0.046523768454790115
      ],
      "min": [
        -0.0760071873664856,
        0.3616674244403839,
        -0.058216433972120285
      ],
      "type": "VEC3"
    },
    {
      "bufferView": 2,
      "byteOffset": 912552,
      "componentType": 5126,
      "count": 294,
      "max": [
        1.0,
        0.9975612759590149,
        0.9975612759590149
      ],
      "min": [
        -1.0,
        -0.9975612759590149,
        -0.9975612759590149
      ],
      "type": "VEC3"
    },
    {
      "bufferView": 3,
      "byteOffset": 240256,
      "componentType": 5126,
      "count": 294,
      "max": [
        1.0,
        0.9975641369819641,
        0.6695509552955627,
        1.0
      ],
      "min": [
        -1.0,
        -0.9975640773773193,
        -0.6695509552955627,
        -1.0
      ],
      "type": "VEC4"
    },
    {
      "bufferView": 1,
      "byteOffset": 583616,
      "componentType": 5126,
      "count": 294,
      "max": [
        1.0,
        0.9900000095367432
      ],
      "min": [
        0.0,
        0.0
      ],
      "type": "VEC2"
    },
    {
      "bufferView": 0,
      "byteOffset": 483828,
      "componentType": 5125,
      "count": 828,
      "type": "SCALAR"
    },
    {
      "bufferView": 2,
      "byteOffset": 916080,
      "componentType": 5126,
      "count": 756,
      "max": [
        0.06512544304132462,
        -0.025962933897972107,
        0.18611286580562592
      ],
      "min": [
        -0.06512544304132462,
        -0.09295093268156052,
        0.08250419050455093
      ],
      "type": "VEC3"
    },
    {
      "bufferView": 2,
      "byteOffset": 925152,
      "componentType": 5126,
      "count": 756,
      "max": [
        0.999784529209137,
        0.9862130880355835,
        0.9986199140548706
      ],
      "min": [
        -0.999784529209137,
        -0.9926063418388367,
        -0.9441915154457092
      ],
      "type": "VEC3"
    },
    {
      "bufferView": 3,
      "byteOffset": 244960,
      "componentType": 5126,
      "count": 756,
      "max": [
        0.9004897475242615,
        0.999950647354126,
        0.9974449872970581,
        -1.0
      ],
      "min": [
        -0.7052059173583984,
        -0.9947652816772461,
        -0.9877030253410339,
        -1.0
      ],
      "type": "VEC4"
    },
    {
      "bufferView": 1,
      "byteOffset": 585968,
      "componentType": 5126,
      "count": 756,
      "max": [
        1.0,
        1.0
      ],
      "min": [
        -4.72614587465614e-08,
        0.005399763584136963
      ],
      "type": "VEC2"
    },
    {
      "bufferView": 0,
      "byteOffset": 487140,
      "componentType": 5125,
      "count": 2910,
      "type": "SCALAR"
    },
    {
      "bufferView": 2,
      "byteOffset": 934224,
      "componentType": 5126,
      "count": 288,
      "max": [
        0.030606186017394066,
        -0.06353084743022919,
        0.18490275740623474
      ],
      "min": [
        -0.03020462766289711,
        -0.07561713457107544,
        0.18245603144168854
      ],
      "type": "VEC3"
    },
    {
      "bufferView": 2,
      "byteOffset": 937680,
      "componentType": 5126,
      "count": 288,
      "max": [
        0.0,
        -0.19778881967067719,
        0.9802446365356445
      ],
      "min": [
        0.0,
        -0.19919197261333466,
        0.979960560798645
      ],
      "type": "VEC3"
    },
    {
      "bufferView": 3,
      "byteOffset": 257056,
      "componentType": 5126,
      "count": 288,
      "max": [
        0.9725736379623413,
        0.780498206615448,
        0.15843810141086578,
        -1.0
      ],
      "min": [
        0.6049889922142029,
        0.22793883085250854,
        0.04602478817105293,
        -1.0
      ],
      "type": "VEC4"
    },
    {
      "bufferView": 1,
      "byteOffset": 592016,
      "componentType": 5126,
      "count": 288,
      "max": [
        0.12111569941043854,
        0.390819787979126
      ],
      "min": [
        0.06957922875881195,
        0.13667482137680054
      ],
      "type": "VEC2"
    },
    {
      "bufferView": 0,
      "byteOffset": 498780,
      "componentType": 5125,
      "count": 846,
      "type": "SCALAR"
    },
    {
      "bufferView": 2,
      "byteOffset": 941136,
      "componentType": 5126,
      "count": 1274,
      "max": [
        0.6522201895713806,
        0.39416927099227905,
        0.008545506745576859
      ],
      "min": [
        -0.6522201299667358,
        -0.4243488311767578,
        -0.1838981956243515
      ],
      "type": "VEC3"
    },
    {
      "bufferView": 2,
      "byteOffset": 956424,
      "componentType": 5126,
      "count": 1274,
      "max": [
        0.9948525428771973,
        0.9986314177513123,
        0.9986314177513123
      ],
      "min": [
        -0.9948525428771973,
        -0.9986314177513123,
        -0.9986314177513123
      ],
      "type": "VEC3"
    },
    {
      "bufferView": 1,
      "byteOffset": 594320,
      "componentType": 5126,
      "count": 1274,
      "max": [
        1.0,
        0.9900000095367432
      ],
      "min": [
        -1.862645149230957e-07,
        0.0
      ],
      "type": "VEC2"
    },
    {
      "bufferView": 0,
      "byteOffset": 502164,
      "componentType": 5125,
      "count": 2940,
      "type": "SCALAR"
    },
    {
      "bufferView": 2,
      "byteOffset": 971712,
      "componentType": 5126,
      "count": 6322,
      "max": [
        0.7575706839561462,
        0.5377818942070007,
        0.0941455066204071
      ],
      "min": [
        -0.7575706839561462,
        -0.5281590223312378,
        -0.26408877968788147
      ],
      "type": "VEC3"
    },
    {
      "bufferView": 2,
      "byteOffset": 1047576,
      "componentType": 5126,
      "count": 6322,
      "max": [
        1.0,
        0.9996377229690552,
        0.999964714050293
      ],
      "min": [
        -1.0,
        -0.9996595978736877,
        -0.9999985694885254
      ],
      "type": "VEC3"
    },
    {
      "bufferView": 3,
      "byteOffset": 261664,
      "componentType": 5126,
      "count": 6322,
      "max": [
        0.9999985694885254,
        0.9999958872795105,
        0.9997979998588562,
        1.0
      ],
      "min": [
        -1.0,
        -0.998612642288208,
        -0.9995662569999695,
        -1.0
      ],
      "type": "VEC4"
    },
    {
      "bufferView": 1,
      "byteOffset": 604512,
      "componentType": 5126,
      "count": 6322,
      "max": [
        0.9999998807907104,
        1.0
      ],
      "min": [
        -1.2705511087673926e-09,
        0.05505967140197754
      ],
      "type": "VEC2"
    },
    {
      "bufferView": 0,
      "byteOffset": 513924,
      "componentType": 5125,
      "count": 25404,
      "type": "SCALAR"
    },
    {
      "bufferView": 2,
      "byteOffset": 1123440,
      "componentType": 5126,
      "count": 642,
      "max": [
        0.13592740893363953,
        0.06106802076101303,
        -0.06738166511058807
      ],
      "min": [
        -0.13592740893363953,
        -0.014669105410575867,
        -0.06899918615818024
      ],
      "type": "VEC3"
    },
    {
      "bufferView": 2,
      "byteOffset": 1131144,
      "componentType": 5126,
      "count": 642,
      "max": [
        0.014499954879283905,
        -0.0016999617218971252,
        -0.9997969269752502
      ],
      "min": [
        -0.014499954879283905,
        -0.01439994852989912,
        -0.9999985694885254
      ],
      "type": "VEC3"
    },
    {
      "bufferView": 3,
      "byteOffset": 362816,
      "componentType": 5126,
      "count": 642,
      "max": [
        0.9999985694885254,
        0.9999892711639404,
        0.014412782154977322,
        1.0
      ],
      "min": [
        -0.9999986290931702,
        -0.9412074089050293,
        -0.018655594438314438,
        -1.0
      ],
      "type": "VEC4"
    },
    {
      "bufferView": 1,
      "byteOffset": 655088,
      "componentType": 5126,
      "count": 642,
      "max": [
        0.24060067534446716,
        0.753339409828186
      ],
      "min": [
        0.20740126073360443,
        0.6322202682495117
      ],
      "type": "VEC2"
    },
    {
      "bufferView": 0,
      "byteOffset": 615540,
      "componentType": 5125,
      "count": 1950,
      "type": "SCALAR"
    },
    {
      "bufferView": 2,
      "byteOffset": 1138848,
      "componentType": 5126,
      "count": 8493,
      "max": [
        0.7575887441635132,
        0.5620026588439941,
        0.23146218061447144
      ],
      "min": [
        -0.7575887441635132,
        -0.5307056307792664,
        -0.12626412510871887
      ],
      "type": "VEC3"
    },
    {
      "bufferView": 2,
      "byteOffset": 1240764,
      "componentType": 5126,
      "count": 8493,
      "max": [
        1.0,
        0.9999908208847046,
        0.9996916651725769
      ],
      "min": [
        -1.0,
        -0.9998657703399658,
        -0.999964714050293
      ],
      "type": "VEC3"
    },
    {
      "bufferView": 3,
      "byteOffset": 373088,
      "componentType": 5126,
      "count": 8493,
      "max": [
        1.0,
        0.9999647736549377,
        0.9999971985816956,
        1.0
      ],
      "min": [
        -1.0,
        -0.9999991059303284,
        -0.9998129606246948,
        -1.0
      ],
      "type": "VEC4"
    },
    {
      "bufferView": 1,
      "byteOffset": 660224,
      "componentType": 5126,
      "count": 8493,
      "max": [
        0.9883823394775391,
        1.0
      ],
      "min": [
        -5.951258330583187e-08,
        0.055427730083465576
      ],
      "type": "VEC2"
    },
    {
      "bufferView": 0,
      "byteOffset": 623340,
      "componentType": 5125,
      "count": 31056,
      "type": "SCALAR"
    },
    {
      "bufferView": 2,
      "byteOffset": 1342680,
      "componentType": 5126,
      "count": 364,
      "max": [
        0.7550904750823975,
        0.5370727181434631,
        0.09902827441692352
      ],
      "min": [
        -0.7550904750823975,
        -0.5266047716140747,
        -0.13055384159088135
      ],
      "type": "VEC3"
    },
    {
      "bufferView": 2,
      "byteOffset": 1347048,
      "componentType": 5126,
      "count": 364,
      "max": [
        0.9992451071739197,
        0.9553552269935608,
        0.22709953784942627
      ],
      "min": [
        -0.9992489814758301,
        -0.9999672174453735,
        -0.4613100588321686
      ],
      "type": "VEC3"
    },
    {
      "bufferView": 1,
      "byteOffset": 728168,
      "componentType": 5126,
      "count": 364,
      "max": [
        1.0,
        1.0
      ],
      "min": [
        0.1410960704088211,
        0.021159350872039795
      ],
      "type": "VEC2"
    },
    {
      "bufferView": 0,
      "byteOffset": 747564,
      "componentType": 5125,
      "count": 954,
      "type": "SCALAR"
    },
    {
      "bufferView": 2,
      "byteOffset": 1351416,
      "componentType": 5126,
      "count": 580,
      "max": [
        0.05000000447034836,
        0.38251814246177673,
        0.22164283692836761
      ],
      "min": [
        -0.05000000447034836,
        0.2797767221927643,
        0.15675446391105652
      ],
      "type": "VEC3"
    },
    {
      "bufferView": 2,
      "byteOffset": 1358376,
      "componentType": 5126,
      "count": 580,
      "max": [
        0.9737546443939209,
        0.9843354225158691,
        0.999344527721405
      ],
      "min": [
        -0.9737546443939209,
        -0.9605214595794678,
        -0.9976234436035156
      ],
      "type": "VEC3"
    },
    {
      "bufferView": 3,
      "byteOffset": 508976,
      "componentType": 5126,
      "count": 580,
      "max": [
        1.0,
        0.9969442486763,
        0.9687762260437012,
        1.0
      ],
      "min": [
        -0.8448323011398315,
        -0.8914695978164673,
        -0.9840399622917175,
        -1.0
      ],
      "type": "VEC4"
    },
    {
      "bufferView": 1,
      "byteOffset": 731080,
      "componentType": 5126,
      "count": 580,
      "max": [
        0.8740075826644897,
        1.0
      ],
      "min": [
        -1.0780884451833117e-07,
        1.7881393432617188e-07
      ],
      "type": "VEC2"
    },
    {
      "bufferView": 0,
      "byteOffset": 751380,
      "componentType": 5125,
      "count": 1770,
      "type": "SCALAR"
    },
    {
      "bufferView": 2,
      "byteOffset": 1365336,
      "componentType": 5126,
      "count": 342,
      "max": [
        0.03524167090654373,
        0.3621140122413635,
        0.22091549634933472
      ],
      "min": [
        -0.04497580975294113,
        0.3018127381801605,
        0.2177552878856659
      ],
      "type": "VEC3"
    },
    {
      "bufferView": 2,
      "byteOffset": 1369440,
      "componentType": 5126,
      "count": 342,
      "max": [
        0.0,
        0.052301645278930664,
        0.9986703991889954
      ],
      "min": [
        -0.005300091579556465,
        0.05129847675561905,
        0.9986173510551453
      ],
      "type": "VEC3"
    },
    {
      "bufferView": 3,
      "byteOffset": 518256,
      "componentType": 5126,
      "count": 342,
      "max": [
        0.9999581575393677,
        0.993848443031311,
        0.051925987005233765,
        1.0
      ],
      "min": [
        -0.8625586628913879,
        -0.9914586544036865,
        -0.05256858840584755,
        -1.0
      ],
      "type": "VEC4"
    },
    {
      "bufferView": 1,
      "byteOffset": 735720,
      "componentType": 5126,
      "count": 342,
      "max": [
        0.7849701642990112,
        0.9423633217811584
      ],
      "min": [
        0.5266215801239014,
        0.5772743225097656
      ],
      "type": "VEC2"
    },
    {
      "bufferView": 0,
      "byteOffset": 758460,
      "componentType": 5125,
      "count": 1026,
      "type": "SCALAR"
    },
    {
      "bufferView": 2,
      "byteOffset": 1373544,
      "componentType": 5126,
      "count": 72,
      "max": [
        0.05000000447034836,
        0.38251814246177673,
        0.2169126719236374
      ],
      "min": [
        -0.05000000447034836,
        0.2797767221927643,
        0.15675446391105652
      ],
      "type": "VEC3"
    },
    {
      "bufferView": 2,
      "byteOffset": 1374408,
      "componentType": 5126,
      "count": 72,
      "max": [
        0.9951931238174438,
        0.9989553689956665,
        0.1499001830816269
      ],
      "min": [
        -0.9951931238174438,
        -0.9887011647224426,
        -0.6567257046699524
      ],
      "type": "VEC3"
    },
    {
      "bufferView": 3,
      "byteOffset": 523728,
      "componentType": 5126,
      "count": 72,
      "max": [
        0.6163346767425537,
        0.5742741823196411,
        0.9974516034126282,
        -1.0
      ],
      "min": [
        -0.4358218014240265,
        -0.6567257046699524,
        -0.9989553093910217,
        -1.0
      ],
      "type": "VEC4"
    },
    {
      "bufferView": 1,
      "byteOffset": 738456,
      "componentType": 5126,
      "count": 72,
      "max": [
        0.9906495213508606,
        0.5660134553909302
      ],
      "min": [
        -4.301342926282814e-08,
        1.7881393432617188e-07
      ],
      "type": "VEC2"
    },
    {
      "bufferView": 1,
      "byteOffset": 739032,
      "componentType": 5126,
      "count": 72,
      "max": [
        0.9906495213508606,
        0.5660134553909302
      ],
      "min": [
        -4.301342926282814e-08,
        1.7881393432617188e-07
      ],
      "type": "VEC2"
    },
    {
      "bufferView": 1,
      "byteOffset": 739608,
      "componentType": 5126,
      "count": 72,
      "max": [
        0.9906495213508606,
        0.5660134553909302
      ],
      "min": [
        -4.301342926282814e-08,
        1.7881393432617188e-07
      ],
      "type": "VEC2"
    },
    {
      "bufferView": 0,
      "byteOffset": 762564,
      "componentType": 5125,
      "count": 192,
      "type": "SCALAR"
    },
    {
      "bufferView": 2,
      "byteOffset": 1375272,
      "componentType": 5126,
      "count": 1272,
      "max": [
        0.4771891236305237,
        0.12658438086509705,
        0.20074579119682312
      ],
      "min": [
        -0.47718900442123413,
        -0.23504000902175903,
        0.09195899218320847
      ],
      "type": "VEC3"
    },
    {
      "bufferView": 2,
      "byteOffset": 1390536,
      "componentType": 5126,
      "count": 1272,
      "max": [
        0.9997094869613647,
        0.9790025353431702,
        0.9983087778091431
      ],
      "min": [
        -0.9997094869613647,
        -0.9979730248451233,
        -0.8197578191757202
      ],
      "type": "VEC3"
    },
    {
      "bufferView": 3,
      "byteOffset": 524880,
      "componentType": 5126,
      "count": 1272,
      "max": [
        0.9945688247680664,
        0.8180433511734009,
        0.9965285062789917,
        -1.0
      ],
      "min": [
        -0.987655520439148,
        -0.8183783888816833,
        -0.9961258172988892,
        -1.0
      ],
      "type": "VEC4"
    },
    {
      "bufferView": 1,
      "byteOffset": 740184,
      "componentType": 5126,
      "count": 1272,
      "max": [
        0.9610396027565002,
        1.0
      ],
      "min": [
        1.1577672154317042e-09,
        5.960464477539063e-08
      ],
      "type": "VEC2"
    },
    {
      "bufferView": 0,
      "byteOffset": 763332,
      "componentType": 5125,
      "count": 4056,
      "type": "SCALAR"
    },
    {
      "bufferView": 2,
      "byteOffset": 1405800,
      "componentType": 5126,
      "count": 276,
      "max": [
        0.046467818319797516,
        0.5220109820365906,
        0.09784601628780365
      ],
      "min": [
        -0.046467818319797516,
        0.455012708902359,
        0.05557926744222641
      ],
      "type": "VEC3"
    },
    {
      "bufferView": 2,
      "byteOffset": 1409112,
      "componentType": 5126,
      "count": 276,
      "max": [
        1.0,
        0.9987440705299377,
        0.9974333047866821
      ],
      "min": [
        -1.0,
        -0.9988521337509155,
        -0.9974333047866821
      ],
      "type": "VEC3"
    },
    {
      "bufferView": 1,
      "byteOffset": 750360,
      "componentType": 5126,
      "count": 276,
      "max": [
        0.875,
        1.0
      ],
      "min": [
        0.0,
        0.21519291400909424
      ],
      "type": "VEC2"
    },
    {
      "bufferView": 0,
      "byteOffset": 779556,
      "componentType": 5125,
      "count": 726,
      "type": "SCALAR"
    },
    {
      "bufferView": 2,
      "byteOffset": 1412424,
      "componentType": 5126,
      "count": 36,
      "max": [
        0.026219254359602928,
        0.5181967616081238,
        0.08274217694997787
      ],
      "min": [
        -0.026219254359602928,
        0.4558042585849762,
        0.07097997516393661
      ],
      "type": "VEC3"
    },
    {
      "bufferView": 2,
      "byteOffset": 1412856,
      "componentType": 5126,
      "count": 36,
      "max": [
        1.0,
        0.052301645278930664,
        0.9986314177513123
      ],
      "min": [
        -1.0,
        -0.9986314177513123,
        -0.9986314177513123
      ],
      "type": "VEC3"
    },
    {
      "bufferView": 1,
      "byteOffset": 752568,
      "componentType": 5126,
      "count": 36,
      "max": [
        0.580905556678772,
        0.4528912901878357
      ],
      "min": [
        0.43679794669151306,
        0.25060898065567017
      ],
      "type": "VEC2"
    },
    {
      "bufferView": 0,
      "byteOffset": 782460,
      "componentType": 5125,
      "count": 54,
      "type": "SCALAR"
    },
    {
      "bufferView": 2,
      "byteOffset": 1413288,
      "componentType": 5126,
      "count": 226,
      "max": [
        -0.23073910176753998,
        0.4617196023464203,
        0.21400679647922516
      ],
      "min": [
        -0.31772807240486145,
        0.42195335030555725,
        0.11258242279291153
      ],
      "type": "VEC3"
    },
    {
      "bufferView": 2,
      "byteOffset": 1416000,
      "componentType": 5126,
      "count": 226,
      "max": [
        0.9843319058418274,
        0.9883552193641663,
        0.999862790107727
      ],
      "min": [
        -0.984341025352478,
        -0.9703209400177002,
        -0.988126277923584
      ],
      "type": "VEC3"
    },
    {
      "bufferView": 3,
      "byteOffset": 545232,
      "componentType": 5126,
      "count": 226,
      "max": [
        0.999997079372406,
        0.9997314810752869,
        0.7419942021369934,
        1.0
      ],
      "min": [
        -0.996016263961792,
        -0.9998937249183655,
        -0.6678863763809204,
        -1.0
      ],
      "type": "VEC4"
    },
    {
      "bufferView": 1,
      "byteOffset": 752856,
      "componentType": 5126,
      "count": 226,
      "max": [
        0.7802120447158813,
        1.0
      ],
      "min": [
        2.7508164635037247e-08,
        0.05995762348175049
      ],
      "type": "VEC2"
    },
    {
      "bufferView": 0,
      "byteOffset": 782676,
      "componentType": 5125,
      "count": 750,
      "type": "SCALAR"
    },
    {
      "bufferView": 2,
      "byteOffset": 1418712,
      "componentType": 5126,
      "count": 69,
      "max": [
        -0.255699098110199,
        0.4519442021846771,
        0.2137283831834793
      ],
      "min": [
        -0.29366248846054077,
        0.43749943375587463,
        0.21297138929367065
      ],
      "type": "VEC3"
    },
    {
      "bufferView": 2,
      "byteOffset": 1419540,
      "componentType": 5126,
      "count": 69,
      "max": [
        0.0,
        0.052301645278930664,
        0.9986314177513123
      ],
      "min": [
        0.0,
        0.052301645278930664,
        0.9986314177513123
      ],
      "type": "VEC3"
    },
    {
      "bufferView": 3,
      "byteOffset": 548848,
      "componentType": 5126,
      "count": 69,
      "max": [
        1.0,
        0.993496835231781,
        0.05229498818516731,
        1.0
      ],
      "min": [
        -0.13128569722175598,
        -0.9985041618347168,
        -0.05203273892402649,
        -1.0
      ],
      "type": "VEC4"
    },
    {
      "bufferView": 1,
      "byteOffset": 754664,
      "componentType": 5126,
      "count": 69,
      "max": [
        0.2855640947818756,
        0.38590025901794434
      ],
      "min": [
        0.21476326882839203,
        0.19407707452774048
      ],
      "type": "VEC2"
    },
    {
      "bufferView": 0,
      "byteOffset": 785676,
      "componentType": 5125,
      "count": 195,
      "type": "SCALAR"
    },
    {
      "bufferView": 2,
      "byteOffset": 1420368,
      "componentType": 5126,
      "count": 44,
      "max": [
        -0.23073910176753998,
        0.4617196023464203,
        0.2092757225036621
      ],
      "min": [
        -0.31772807240486145,
        0.42195335030555725,
        0.11258242279291153
      ],
      "type": "VEC3"
    },
    {
      "bufferView": 2,
      "byteOffset": 1420896,
      "componentType": 5126,
      "count": 44,
      "max": [
        0.9969526529312134,
        0.9953409433364868,
        0.1261950433254242
      ],
      "min": [
        -0.9969550371170044,
        -0.9875611662864685,
        -0.590205729007721
      ],
      "type": "VEC3"
    },
    {
      "bufferView": 3,
      "byteOffset": 549952,
      "componentType": 5126,
      "count": 44,
      "max": [
        0.710661768913269,
        0.9993762969970703,
        0.10715912282466888,
        -1.0
      ],
      "min": [
        -0.9955874085426331,
        -0.9994359612464905,
        -0.12556198239326477,
        -1.0
      ],
      "type": "VEC4"
    },
    {
      "bufferView": 1,
      "byteOffset": 755216,
      "componentType": 5126,
      "count": 44,
      "max": [
        0.7802120447158813,
        0.9999999403953552
      ],
      "min": [
        -1.6281163084386208e-08,
        -1.1920928955078125e-07
      ],
      "type": "VEC2"
    },
    {
      "bufferView": 1,
      "byteOffset": 755568,
      "componentType": 5126,
      "count": 44,
      "max": [
        0.7802120447158813,
        0.9999999403953552
      ],
      "min": [
        -1.6281163084386208e-08,
        -1.1920928955078125e-07
      ],
      "type": "VEC2"
    },
    {
      "bufferView": 1,
      "byteOffset": 755920,
      "componentType": 5126,
      "count": 44,
      "max": [
        0.7802120447158813,
        0.9999999403953552
      ],
      "min": [
        -1.6281163084386208e-08,
        -1.1920928955078125e-07
      ],
      "type": "VEC2"
    },
    {
      "bufferView": 0,
      "byteOffset": 786456,
      "componentType": 5125,
      "count": 108,
      "type": "SCALAR"
    }
  ],
  "asset": {
    "extras": {
      "author": "Ranguel (https://sketchfab.com/Ranguel)",
      "license": "CC-BY-4.0 (http://creativecommons.org/licenses/by/4.0/)",
      "source": "https://sketchfab.com/3d-models/steam-controller-2025-fe10b1da83e54dae953f15d898ad6197",
      "title": "Steam Controller 2025"
    },
    "generator": "Sketchfab-16.87.0",
    "version": "2.0"
  },
  "bufferViews": [
    {
      "buffer": 0,
      "byteLength": 786888,
      "name": "floatBufferViews",
      "target": 34963
    },
    {
      "buffer": 0,
      "byteLength": 756272,
      "byteOffset": 786888,
      "byteStride": 8,
      "name": "floatBufferViews",
      "target": 34962
    },
    {
      "buffer": 0,
      "byteLength": 1421424,
      "byteOffset": 1543160,
      "byteStride": 12,
      "name": "floatBufferViews",
      "target": 34962
    },
    {
      "buffer": 0,
      "byteLength": 550656,
      "byteOffset": 2964584,
      "byteStride": 16,
      "name": "floatBufferViews",
      "target": 34962
    }
  ],
  "buffers": [
    {
      "byteLength": 3515240,
      "uri": "scene.bin"
    }
  ],
  "extensionsUsed": [
    "KHR_texture_transform",
    "KHR_materials_clearcoat",
    "KHR_materials_transmission",
    "KHR_materials_emissive_strength"
  ],
  "images": [
    {
      "uri": "textures/Ink_ABXY_texture_metallicRoughness.png"
    },
    {
      "uri": "textures/Ink_ABXY_texture_normal.png"
    },
    {
      "uri": "textures/Plastic_Track-pad_texture_normal.png"
    },
    {
      "uri": "textures/Rubber_L3R3_texture_metallicRoughness.png"
    }
  ],
  "materials": [
    {
      "doubleSided": true,
      "extensions": {
        "KHR_materials_clearcoat": {
          "clearcoatFactor": 0.0318182,
          "clearcoatRoughnessFactor": 0.0
        }
      },
      "name": "Ink_ABXY_texture",
      "normalTexture": {
        "extensions": {
          "KHR_texture_transform": {
            "offset": [
              0,
              -3
            ],
            "scale": [
              4,
              4
            ]
          }
        },
        "index": 1,
        "scale": 0.2
      },
      "pbrMetallicRoughness": {
        "baseColorFactor": [
          0.199568,
          0.199568,
          0.199568,
          1.0
        ],
        "metallicFactor": 0.0,
        "metallicRoughnessTexture": {
          "index": 0
        }
      }
    },
    {
      "doubleSided": true,
      "extensions": {
        "KHR_materials_clearcoat": {
          "clearcoatFactor": 0.0318182,
          "clearcoatRoughnessFactor": 0.0
        }
      },
      "name": "Plastic_ABXY_texture",
      "normalTexture": {
        "extensions": {
          "KHR_texture_transform": {
            "offset": [
              0,
              -3
            ],
            "scale": [
              4,
              4
            ]
          }
        },
        "index": 1,
        "scale": 0.2
      },
      "pbrMetallicRoughness": {
        "baseColorFactor": [
          0.0,
          0.0,
          0.0,
          1.0
        ],
        "metallicFactor": 0.0,
        "metallicRoughnessTexture": {
          "index": 0
        }
      }
    },
    {
      "doubleSided": true,
      "name": "Plastic_D-pad_texture",
      "normalTexture": {
        "extensions": {
          "KHR_texture_transform": {
            "offset": [
              0,
              -3
            ],
            "scale": [
              4,
              4
            ]
          }
        },
        "index": 1,
        "scale": 0.2
      },
      "pbrMetallicRoughness": {
        "baseColorFactor": [
          0.0,
          0.0,
          0.0,
          1.0
        ],
        "metallicFactor": 0.0,
        "metallicRoughnessTexture": {
          "extensions": {
            "KHR_texture_transform": {
              "offset": [
                0,
                0.5
              ],
              "scale": [
                0.5,
                0.5
              ]
            }
          },
          "index": 0
        }
      }
    },
    {
      "doubleSided": true,
      "name": "Plastic_L2R2",
      "pbrMetallicRoughness": {
        "baseColorFactor": [
          0.0,
          0.0,
          0.0,
          1.0
        ],
        "metallicFactor": 0.0,
        "roughnessFactor": 0.138636
      }
    },
    {
      "doubleSided": true,
      "name": "Plastic_Track-pad_texture",
      "normalTexture": {
        "extensions": {
          "KHR_texture_transform": {
            "offset": [
              0,
              -1
            ],
            "scale": [
              2,
              2
            ]
          }
        },
        "index": 2,
        "scale": 0.7
      },
      "pbrMetallicRoughness": {
        "baseColorFactor": [
          0.00474768,
          0.00474768,
          0.00474768,
          1.0
        ],
        "metallicFactor": 0.0,
        "roughnessFactor": 0.329545
      }
    },
    {
      "doubleSided": true,
      "name": "Rubber_L3R3_texture",
      "pbrMetallicRoughness": {
        "baseColorFactor": [
          0.00165351,
          0.00165351,
          0.00165351,
          1.0
        ],
        "metallicFactor": 0.0,
        "metallicRoughnessTexture": {
          "extensions": {
            "KHR_texture_transform": {
              "offset": [
                0,
                -1
              ],
              "scale": [
                2,
                2
              ]
            }
          },
          "index": 3
        }
      }
    },
    {
      "alphaMode": "BLEND",
      "doubleSided": true,
      "extensions": {
        "KHR_materials_transmission": {
          "transmissionFactor": 0.44999999999999996
        }
      },
      "name": "Plastic_LED",
      "pbrMetallicRoughness": {
        "baseColorFactor": [
          0.202005,
          0.202005,
          0.202005,
          0.55
        ],
        "metallicFactor": 0.0,
        "roughnessFactor": 0.5
      }
    },
    {
      "doubleSided": true,
      "emissiveFactor": [
        1.0,
        1.0,
        1.0
      ],
      "extensions": {
        "KHR_materials_emissive_strength": {
          "emissiveStrength": 10.0
        }
      },
      "name": "Emissive_LED",
      "pbrMetallicRoughness": {
        "baseColorFactor": [
          0.800751,
          0.762944,
          0.560282,
          1.0
        ],
        "metallicFactor": 0.0,
        "roughnessFactor": 0.5
      }
    },
    {
      "doubleSided": true,
      "name": "Ink_button_texture",
      "normalTexture": {
        "index": 2,
        "scale": 0.7
      },
      "pbrMetallicRoughness": {
        "baseColorFactor": [
          0.268133,
          0.268133,
          0.268133,
          1.0
        ],
        "metallicFactor": 0.025,
        "roughnessFactor": 0.3
      }
    },
    {
      "doubleSided": true,
      "name": "Copper_pins_texture",
      "normalTexture": {
        "index": 1,
        "scale": 0.7
      },
      "pbrMetallicRoughness": {
        "baseColorFactor": [
          0.801196,
          0.505542,
          0.16044,
          1.0
        ],
        "roughnessFactor": 0.195209
      }
    },
    {
      "doubleSided": true,
      "name": "Metal_screw",
      "pbrMetallicRoughness": {
        "baseColorFactor": [
          0.277368,
          0.261794,
          0.265382,
          1.0
        ],
        "roughnessFactor": 0.103243
      }
    },
    {
      "doubleSided": true,
      "name": "Plastic_shell_texture",
      "normalTexture": {
        "extensions": {
          "KHR_texture_transform": {
            "offset": [
              0,
              -7
            ],
            "scale": [
              8,
              8
            ]
          }
        },
        "index": 2,
        "scale": 0.7
      },
      "pbrMetallicRoughness": {
        "baseColorFactor": [
          0.00474768,
          0.00474768,
          0.00474768,
          1.0
        ],
        "metallicFactor": 0.0,
        "roughnessFactor": 0.329545
      }
    },
    {
      "doubleSided": true,
      "name": "Ink_shell_texture",
      "normalTexture": {
        "extensions": {
          "KHR_texture_transform": {
            "offset": [
              0,
              -4
            ],
            "scale": [
              5,
              5
            ]
          }
        },
        "index": 2,
        "scale": 0.7
      },
      "pbrMetallicRoughness": {
        "baseColorFactor": [
          0.0,
          0.0,
          0.0,
          1.0
        ],
        "metallicFactor": 0.0431818,
        "roughnessFactor": 0.0954546
      }
    },
    {
      "doubleSided": true,
      "name": "Plastic_shell_smooth",
      "pbrMetallicRoughness": {
        "baseColorFactor": [
          0.0,
          0.0,
          0.0,
          1.0
        ],
        "metallicFactor": 0.0,
        "roughnessFactor": 0.156818
      }
    },
    {
      "doubleSided": true,
      "name": "Metal_USB_port",
      "pbrMetallicRoughness": {
        "baseColorFactor": [
          0.8,
          0.8,
          0.8,
          1.0
        ],
        "metallicFactor": 0.945338,
        "roughnessFactor": 0.255627
      }
    },
    {
      "doubleSided": true,
      "name": "Plastic_USB_port",
      "pbrMetallicRoughness": {
        "baseColorFactor": [
          0.00344129,
          0.00344129,
          0.00344129,
          1.0
        ],
        "metallicFactor": 0.0,
        "roughnessFactor": 0.319936
      }
    }
  ],
  "meshes": [
    {
      "name": "Object_0",
      "primitives": [
        {
          "attributes": {
            "NORMAL": 1,
            "POSITION": 0,
            "TANGENT": 2,
            "TEXCOORD_0": 3,
            "TEXCOORD_1": 4,
            "TEXCOORD_2": 5
          },
          "indices": 6,
          "material": 0,
          "mode": 4
        }
      ]
    },
    {
      "name": "Object_1",
      "primitives": [
        {
          "attributes": {
            "NORMAL": 8,
            "POSITION": 7,
            "TANGENT": 9,
            "TEXCOORD_0": 10,
            "TEXCOORD_1": 11,
            "TEXCOORD_2": 12
          },
          "indices": 13,
          "material": 1,
          "mode": 4
        }
      ]
    },
    {
      "name": "Object_2",
      "primitives": [
        {
          "attributes": {
            "NORMAL": 15,
            "POSITION": 14,
            "TANGENT": 16,
            "TEXCOORD_0": 17,
            "TEXCOORD_1": 18,
            "TEXCOORD_2": 19
          },
          "indices": 20,
          "material": 0,
          "mode": 4
        }
      ]
    },
    {
      "name": "Object_3",
      "primitives": [
        {
          "attributes": {
            "NORMAL": 22,
            "POSITION": 21,
            "TANGENT": 23,
            "TEXCOORD_0": 24,
            "TEXCOORD_1": 25,
            "TEXCOORD_2": 26
          },
          "indices": 27,
          "material": 0,
          "mode": 4
        }
      ]
    },
    {
      "name": "Object_4",
      "primitives": [
        {
          "attributes": {
            "NORMAL": 29,
            "POSITION": 28,
            "TANGENT": 30,
            "TEXCOORD_0": 31,
            "TEXCOORD_1": 32,
            "TEXCOORD_2": 33
          },
          "indices": 34,
          "material": 0,
          "mode": 4
        }
      ]
    },
    {
      "name": "Object_5",
      "primitives": [
        {
          "attributes": {
            "NORMAL": 36,
            "POSITION": 35,
            "TANGENT": 37,
            "TEXCOORD_0": 38,
            "TEXCOORD_1": 39,
            "TEXCOORD_2": 40
          },
          "indices": 41,
          "material": 2,
          "mode": 4
        }
      ]
    },
    {
      "name": "Object_6",
      "primitives": [
        {
          "attributes": {
            "NORMAL": 43,
            "POSITION": 42,
            "TEXCOORD_0": 44
          },
          "indices": 45,
          "material": 3,
          "mode": 4
        }
      ]
    },
    {
      "name": "Object_7",
      "primitives": [
        {
          "attributes": {
            "NORMAL": 47,
            "POSITION": 46,
            "TANGENT": 48,
            "TEXCOORD_0": 49
          },
          "indices": 50,
          "material": 4,
          "mode": 4
        }
      ]
    },
    {
      "name": "Object_8",
      "primitives": [
        {
          "attributes": {
            "NORMAL": 52,
            "POSITION": 51,
            "TANGENT": 53,
            "TEXCOORD_0": 54
          },
          "indices": 55,
          "material": 4,
          "mode": 4
        }
      ]
    },
    {
      "name": "Object_9",
      "primitives": [
        {
          "attributes": {
            "NORMAL": 57,
            "POSITION": 56,
            "TEXCOORD_0": 58
          },
          "indices": 59,
          "material": 3,
          "mode": 4
        }
      ]
    },
    {
      "name": "Object_10",
      "primitives": [
        {
          "attributes": {
            "NORMAL": 61,
            "POSITION": 60,
            "TANGENT": 62,
            "TEXCOORD_0": 63,
            "TEXCOORD_1": 64,
            "TEXCOORD_2": 65
          },
          "indices": 66,
          "material": 2,
          "mode": 4
        }
      ]
    },
    {
      "name": "Object_11",
      "primitives": [
        {
          "attributes": {
            "NORMAL": 68,
            "POSITION": 67,
            "TEXCOORD_0": 69,
            "TEXCOORD_1": 70
          },
          "indices": 71,
          "material": 5,
          "mode": 4
        }
      ]
    },
    {
      "name": "Object_12",
      "primitives": [
        {
          "attributes": {
            "NORMAL": 73,
            "POSITION": 72,
            "TANGENT": 74,
            "TEXCOORD_0": 75,
            "TEXCOORD_1": 76,
            "TEXCOORD_2": 77
          },
          "indices": 78,
          "material": 2,
          "mode": 4
        }
      ]
    },
    {
      "name": "Object_13",
      "primitives": [
        {
          "attributes": {
            "NORMAL": 80,
            "POSITION": 79,
            "TEXCOORD_0": 81,
            "TEXCOORD_1": 82
          },
          "indices": 83,
          "material": 5,
          "mode": 4
        }
      ]
    },
    {
      "name": "Object_14",
      "primitives": [
        {
          "attributes": {
            "NORMAL": 85,
            "POSITION": 84,
            "TANGENT": 86,
            "TEXCOORD_0": 87
          },
          "indices": 88,
          "material": 4,
          "mode": 4
        }
      ]
    },
    {
      "name": "Object_15",
      "primitives": [
        {
          "attributes": {
            "NORMAL": 90,
            "POSITION": 89,
            "TANGENT": 91,
            "TEXCOORD_0": 92,
            "TEXCOORD_1": 93,
            "TEXCOORD_2": 94
          },
          "indices": 95,
          "material": 2,
          "mode": 4
        }
      ]
    },
    {
      "name": "Object_16",
      "primitives": [
        {
          "attributes": {
            "NORMAL": 97,
            "POSITION": 96,
            "TEXCOORD_0": 98
          },
          "indices": 99,
          "material": 3,
          "mode": 4
        }
      ]
    },
    {
      "name": "Object_17",
      "primitives": [
        {
          "attributes": {
            "NORMAL": 101,
            "POSITION": 100,
            "TEXCOORD_0": 102
          },
          "indices": 103,
          "material": 6,
          "mode": 4
        }
      ]
    },
    {
      "name": "Object_18",
      "primitives": [
        {
          "attributes": {
            "NORMAL": 105,
            "POSITION": 104,
            "TEXCOORD_0": 106
          },
          "indices": 107,
          "material": 7,
          "mode": 4
        }
      ]
    },
    {
      "name": "Object_19",
      "primitives": [
        {
          "attributes": {
            "NORMAL": 109,
            "POSITION": 108,
            "TANGENT": 110,
            "TEXCOORD_0": 111
          },
          "indices": 112,
          "material": 4,
          "mode": 4
        }
      ]
    },
    {
      "name": "Object_20",
      "primitives": [
        {
          "attributes": {
            "NORMAL": 114,
            "POSITION": 113,
            "TANGENT": 115,
            "TEXCOORD_0": 116
          },
          "indices": 117,
          "material": 8,
          "mode": 4
        }
      ]
    },
    {
      "name": "Object_21",
      "primitives": [
        {
          "attributes": {
            "NORMAL": 119,
            "POSITION": 118,
            "TANGENT": 120,
            "TEXCOORD_0": 121,
            "TEXCOORD_1": 122,
            "TEXCOORD_2": 123
          },
          "indices": 124,
          "material": 2,
          "mode": 4
        }
      ]
    },
    {
      "name": "Object_22",
      "primitives": [
        {
          "attributes": {
            "NORMAL": 126,
            "POSITION": 125,
            "TANGENT": 127,
            "TEXCOORD_0": 128
          },
          "indices": 129,
          "material": 9,
          "mode": 4
        }
      ]
    },
    {
      "name": "Object_23",
      "primitives": [
        {
          "attributes": {
            "NORMAL": 131,
            "POSITION": 130,
            "TANGENT": 132,
            "TEXCOORD_0": 133
          },
          "indices": 134,
          "material": 4,
          "mode": 4
        }
      ]
    },
    {
      "name": "Object_24",
      "primitives": [
        {
          "attributes": {
            "NORMAL": 136,
            "POSITION": 135,
            "TANGENT": 137,
            "TEXCOORD_0": 138
          },
          "indices": 139,
          "material": 8,
          "mode": 4
        }
      ]
    },
    {
      "name": "Object_25",
      "primitives": [
        {
          "attributes": {
            "NORMAL": 141,
            "POSITION": 140,
            "TEXCOORD_0": 142
          },
          "indices": 143,
          "material": 10,
          "mode": 4
        }
      ]
    },
    {
      "name": "Object_26",
      "primitives": [
        {
          "attributes": {
            "NORMAL": 145,
            "POSITION": 144,
            "TANGENT": 146,
            "TEXCOORD_0": 147
          },
          "indices": 148,
          "material": 11,
          "mode": 4
        }
      ]
    },
    {
      "name": "Object_27",
      "primitives": [
        {
          "attributes": {
            "NORMAL": 150,
            "POSITION": 149,
            "TANGENT": 151,
            "TEXCOORD_0": 152
          },
          "indices": 153,
          "material": 12,
          "mode": 4
        }
      ]
    },
    {
      "name": "Object_28",
      "primitives": [
        {
          "attributes": {
            "NORMAL": 155,
            "POSITION": 154,
            "TANGENT": 156,
            "TEXCOORD_0": 157
          },
          "indices": 158,
          "material": 11,
          "mode": 4
        }
      ]
    },
    {
      "name": "Object_29",
      "primitives": [
        {
          "attributes": {
            "NORMAL": 160,
            "POSITION": 159,
            "TEXCOORD_0": 161
          },
          "indices": 162,
          "material": 13,
          "mode": 4
        }
      ]
    },
    {
      "name": "Object_30",
      "primitives": [
        {
          "attributes": {
            "NORMAL": 164,
            "POSITION": 163,
            "TANGENT": 165,
            "TEXCOORD_0": 166
          },
          "indices": 167,
          "material": 4,
          "mode": 4
        }
      ]
    },
    {
      "name": "Object_31",
      "primitives": [
        {
          "attributes": {
            "NORMAL": 169,
            "POSITION": 168,
            "TANGENT": 170,
            "TEXCOORD_0": 171
          },
          "indices": 172,
          "material": 8,
          "mode": 4
        }
      ]
    },
    {
      "name": "Object_32",
      "primitives": [
        {
          "attributes": {
            "NORMAL": 174,
            "POSITION": 173,
            "TANGENT": 175,
            "TEXCOORD_0": 176,
            "TEXCOORD_1": 177,
            "TEXCOORD_2": 178
          },
          "indices": 179,
          "material": 1,
          "mode": 4
        }
      ]
    },
    {
      "name": "Object_33",
      "primitives": [
        {
          "attributes": {
            "NORMAL": 181,
            "POSITION": 180,
            "TANGENT": 182,
            "TEXCOORD_0": 183
          },
          "indices": 184,
          "material": 4,
          "mode": 4
        }
      ]
    },
    {
      "name": "Object_34",
      "primitives": [
        {
          "attributes": {
            "NORMAL": 186,
            "POSITION": 185,
            "TEXCOORD_0": 187
          },
          "indices": 188,
          "material": 14,
          "mode": 4
        }
      ]
    },
    {
      "name": "Object_35",
      "primitives": [
        {
          "attributes": {
            "NORMAL": 190,
            "POSITION": 189,
            "TEXCOORD_0": 191
          },
          "indices": 192,
          "material": 15,
          "mode": 4
        }
      ]
    },
    {
      "name": "Object_36",
      "primitives": [
        {
          "attributes": {
            "NORMAL": 194,
            "POSITION": 193,
            "TANGENT": 195,
            "TEXCOORD_0": 196
          },
          "indices": 197,
          "material": 4,
          "mode": 4
        }
      ]
    },
    {
      "name": "Object_37",
      "primitives": [
        {
          "attributes": {
            "NORMAL": 199,
            "POSITION": 198,
            "TANGENT": 200,
            "TEXCOORD_0": 201
          },
          "indices": 202,
          "material": 8,
          "mode": 4
        }
      ]
    },
    {
      "name": "Object_38",
      "primitives": [
        {
          "attributes": {
            "NORMAL": 204,
            "POSITION": 203,
            "TANGENT": 205,
            "TEXCOORD_0": 206,
            "TEXCOORD_1": 207,
            "TEXCOORD_2": 208
          },
          "indices": 209,
          "material": 2,
          "mode": 4
        }
      ]
    }
  ],
  "nodes": [
    {
      "children": [
        1
      ],
      "matrix": [
        1.0,
        0.0,
        0.0,
        0.0,
        0.0,
        2.220446049250313e-16,
        -1.0,
        0.0,
        0.0,
        1.0,
        2.220446049250313e-16,
        0.0,
        0.0,
        0.0,
        0.0,
        1.0
      ],
      "name": "Sketchfab_model"
    },
    {
      "children": [
        2
      ],
      "name": "root"
    },
    {
      "children": [
        3
      ],
      "matrix": [
        1.0,
        0.0,
        0.0,
        0.0,
        0.0,
        2.220446049250313e-16,
        1.0,
        0.0,
        0.0,
        -1.0,
        2.220446049250313e-16,
        0.0,
        0.0,
        0.0,
        0.0,
        1.0
      ],
      "name": "GLTF_SceneRootNode"
    },
    {
      "children": [
        4,
        10,
        12,
        15,
        18,
        23,
        27,
        30,
        34,
        36,
        39,
        41,
        44,
        47,
        51,
        53,
        56
      ],
      "name": "Steam Controller_17"
    },
    {
      "children": [
        5,
        6,
        7,
        8,
        9
      ],
      "matrix": [
        1.0,
        0.0,
        0.0,
        0.0,
        0.0,
        0.052336031570075714,
        0.9986295308068434,
        0.0,
        0.0,
        -0.9986295308068434,
        0.052336031570075714,
        0.0,
        0.0,
        0.0,
        0.0,
        1.0
      ],
      "name": "A/B/Y/X_0"
    },
    {
      "mesh": 0,
      "name": "Object_5"
    },
    {
      "mesh": 1,
      "name": "Object_6"
    },
    {
      "mesh": 2,
      "name": "Object_7"
    },
    {
      "mesh": 3,
      "name": "Object_8"
    },
    {
      "mesh": 4,
      "name": "Object_9"
    },
    {
      "children": [
        11
      ],
      "matrix": [
        1.0,
        0.0,
        0.0,
        0.0,
        0.0,
        -0.06975628615346241,
        0.9975640633774236,
        0.0,
        0.0,
        -0.9975640633774236,
        -0.06975628615346241,
        0.0,
        0.0,
        0.0,
        0.0,
        1.0
      ],
      "name": "D-PAD_1"
    },
    {
      "mesh": 5,
      "name": "Object_11"
    },
    {
      "children": [
        13,
        14
      ],
      "name": "L1/R1_2"
    },
    {
      "mesh": 6,
      "name": "Object_13"
    },
    {
      "mesh": 7,
      "name": "Object_14"
    },
    {
      "children": [
        16,
        17
      ],
      "name": "L2/R2_3"
    },
    {
      "mesh": 8,
      "name": "Object_16"
    },
    {
      "mesh": 9,
      "name": "Object_17"
    },
    {
      "children": [
        19,
        20,
        21,
        22
      ],
      "name": "L3/R3_4"
    },
    {
      "mesh": 10,
      "name": "Object_19"
    },
    {
      "mesh": 11,
      "name": "Object_20"
    },
    {
      "mesh": 12,
      "name": "Object_21"
    },
    {
      "mesh": 13,
      "name": "Object_22"
    },
    {
      "children": [
        24,
        25,
        26
      ],
      "name": "L4/R4 & L5/R5_5"
    },
    {
      "mesh": 14,
      "name": "Object_24"
    },
    {
      "mesh": 15,
      "name": "Object_25"
    },
    {
      "mesh": 16,
      "name": "Object_26"
    },
    {
      "children": [
        28,
        29
      ],
      "name": "LED_6"
    },
    {
      "mesh": 17,
      "name": "Object_28"
    },
    {
      "mesh": 18,
      "name": "Object_29"
    },
    {
      "children": [
        31,
        32,
        33
      ],
      "name": "Menu Button_7"
    },
    {
      "mesh": 19,
      "name": "Object_31"
    },
    {
      "mesh": 20,
      "name": "Object_32"
    },
    {
      "mesh": 21,
      "name": "Object_33"
    },
    {
      "children": [
        35
      ],
      "name": "pins_8"
    },
    {
      "mesh": 22,
      "name": "Object_35"
    },
    {
      "children": [
        37,
        38
      ],
      "name": "Quick Acces Button_9"
    },
    {
      "mesh": 23,
      "name": "Object_37"
    },
    {
      "mesh": 24,
      "name": "Object_38"
    },
    {
      "children": [
        40
      ],
      "name": "Screws_10"
    },
    {
      "mesh": 25,
      "name": "Object_40"
    },
    {
      "children": [
        42,
        43
      ],
      "name": "Shell bottom_11"
    },
    {
      "mesh": 26,
      "name": "Object_42"
    },
    {
      "mesh": 27,
      "name": "Object_43"
    },
    {
      "children": [
        45,
        46
      ],
      "name": "Shell top_12"
    },
    {
      "mesh": 28,
      "name": "Object_45"
    },
    {
      "mesh": 29,
      "name": "Object_46"
    },
    {
      "children": [
        48,
        49,
        50
      ],
      "name": "Steam Button_13"
    },
    {
      "mesh": 30,
      "name": "Object_48"
    },
    {
      "mesh": 31,
      "name": "Object_49"
    },
    {
      "mesh": 32,
      "name": "Object_50"
    },
    {
      "children": [
        52
      ],
      "name": "TrackPad_14"
    },
    {
      "mesh": 33,
      "name": "Object_52"
    },
    {
      "children": [
        54,
        55
      ],
      "name": "USB-C port_15"
    },
    {
      "mesh": 34,
      "name": "Object_54"
    },
    {
      "mesh": 35,
      "name": "Object_55"
    },
    {
      "children": [
        57,
        58,
        59
      ],
      "name": "View Button_16"
    },
    {
      "mesh": 36,
      "name": "Object_57"
    },
    {
      "mesh": 37,
      "name": "Object_58"
    },
    {
      "mesh": 38,
      "name": "Object_59"
    }
  ],
  "samplers": [
    {
      "magFilter": 9729,
      "minFilter": 9987,
      "wrapS": 10497,
      "wrapT": 10497
    }
  ],
  "scene": 0,
  "scenes": [
    {
      "name": "Sketchfab_Scene",
      "nodes": [
        0
      ]
    }
  ],
  "textures": [
    {
      "sampler": 0,
      "source": 0
    },
    {
      "sampler": 0,
      "source": 1
    },
    {
      "sampler": 0,
      "source": 2
    },
    {
      "sampler": 0,
      "source": 3
    }
  ]
}
