{
  "accessors": [
    {
      "bufferView": 2,
      "componentType": 5126,
      "count": 65532,
      "max": [
        -5.315871715545654,
        -42.18997573852539,
        -26.20409393310547
      ],
      "min": [
        -5.498329162597656,
        -42.40547561645508,
        -26.360795974731445
      ],
      "type": "VEC3"
    },
    {
      "bufferView": 2,
      "byteOffset": 786384,
      "componentType": 5126,
      "count": 65532,
      "max": [
        0.9999961853027344,
        0.9999570846557617,
        0.9999401569366455
      ],
      "min": [
        -0.9999545216560364,
        -0.999990701675415,
        -0.9997443556785583
      ],
      "type": "VEC3"
    },
    {
      "bufferView": 1,
      "componentType": 5126,
      "count": 65532,
      "max": [
        0.9996777772903442,
        0.9978026151657104
      ],
      "min": [
        0.000244140625,
        0.00028558506164699793
      ],
      "type": "VEC2"
    },
    {
      "bufferView": 0,
      "componentType": 5125,
      "count": 294627,
      "type": "SCALAR"
    },
    {
      "bufferView": 2,
      "byteOffset": 1572768,
      "componentType": 5126,
      "count": 65532,
      "max": [
        -5.335358142852783,
        -42.2258415222168,
        -26.20961570739746
      ],
      "min": [
        -5.57731294631958,
        -42.440364837646484,
        -26.505197525024414
      ],
      "type": "VEC3"
    },
    {
      "bufferView": 2,
      "byteOffset": 2359152,
      "componentType": 5126,
      "count": 65532,
      "max": [
        0.9996128082275391,
        0.9998294115066528,
        0.9999980926513672
      ],
      "min": [
        -0.9999889135360718,
        -0.9999901652336121,
        -0.9996699690818787
      ],
      "type": "VEC3"
    },
    {
      "bufferView": 1,
      "byteOffset": 524256,
      "componentType": 5126,
      "count": 65532,
      "max": [
        0.999262809753418,
        0.9987791776657104
      ],
      "min": [
        0.00024414061044808477,
        0.00024535192642360926
      ],
      "type": "VEC2"
    },
    {
      "bufferView": 0,
      "byteOffset": 1178508,
      "componentType": 5125,
      "count": 294129,
      "type": "SCALAR"
    },
    {
      "bufferView": 2,
      "byteOffset": 3145536,
      "componentType": 5126,
      "count": 65532,
      "max": [
        -5.349881649017334,
        -42.180877685546875,
        -26.213542938232422
      ],
      "min": [
        -5.576447486877441,
        -42.424232482910156,
        -26.509506225585938
      ],
      "type": "VEC3"
    },
    {
      "bufferView": 2,
      "byteOffset": 3931920,
      "componentType": 5126,
      "count": 65532,
      "max": [
        0.9999849200248718,
        0.9999971389770508,
        1.0
      ],
      "min": [
        -0.999994158744812,
        -0.999995768070221,
        -0.9990061521530151
      ],
      "type": "VEC3"
    },
    {
      "bufferView": 1,
      "byteOffset": 1048512,
      "componentType": 5126,
      "count": 65532,
      "max": [
        0.9994746446609497,
        0.9890135526657104
      ],
      "min": [
        0.000244140625,
        0.00024529232177883387
      ],
      "type": "VEC2"
    },
    {
      "bufferView": 0,
      "byteOffset": 2355024,
      "componentType": 5125,
      "count": 309570,
      "type": "SCALAR"
    },
    {
      "bufferView": 2,
      "byteOffset": 4718304,
      "componentType": 5126,
      "count": 26695,
      "max": [
        -5.339248180389404,
        -42.22611618041992,
        -26.20738410949707
      ],
      "min": [
        -5.458915710449219,
        -42.429962158203125,
        -26.509506225585938
      ],
      "type": "VEC3"
    },
    {
      "bufferView": 2,
      "byteOffset": 5038644,
      "componentType": 5126,
      "count": 26695,
      "max": [
        0.9999765753746033,
        0.9999971389770508,
        0.9999993443489075
      ],
      "min": [
        -0.9998935461044312,
        -0.9999906420707703,
        -0.9964732527732849
      ],
      "type": "VEC3"
    },
    {
      "bufferView": 1,
      "byteOffset": 1572768,
      "componentType": 5126,
      "count": 26695,
      "max": [
        0.9995901584625244,
        0.9948729276657104
      ],
      "min": [
        0.000244140625,
        0.00027074350509792566
      ],
      "type": "VEC2"
    },
    {
      "bufferView": 0,
      "byteOffset": 3593304,
      "componentType": 5125,
      "count": 108084,
      "type": "SCALAR"
    }
  ],
  "asset": {
    "extras": {
      "author": "Wilfrid70 (https://sketchfab.com/Wilfrid70)",
      "license": "SKETCHFAB Standard (https://sketchfab.com/licenses)",
      "source": "https://sketchfab.com/3d-models/bouquet-roses-blanches-c25beea3089c43b7b063ff844e5a5194",
      "title": "Bouquet Roses Blanches"
    },
    "generator": "Sketchfab-16.82.0",
    "version": "2.0"
  },
  "bufferViews": [
    {
      "buffer": 0,
      "byteLength": 4025640,
      "name": "floatBufferViews",
      "target": 34963
    },
    {
      "buffer": 0,
      "byteLength": 1786328,
      "byteOffset": 4025640,
      "byteStride": 8,
      "name": "floatBufferViews",
      "target": 34962
    },
    {
      "buffer": 0,
      "byteLength": 5358984,
      "byteOffset": 5811968,
      "byteStride": 12,
      "name": "floatBufferViews",
      "target": 34962
    }
  ],
  "buffers": [
    {
      "byteLength": 11170952,
      "uri": "scene.bin"
    }
  ],
  "extensionsUsed": [
    "KHR_materials_unlit"
  ],
  "images": [
    {
      "uri": "textures/tex_u1_v1_baseColor.jpeg"
    }
  ],
  "materials": [
    {
      "doubleSided": true,
      "extensions": {
        "KHR_materials_unlit": {}
      },
      "name": "tex_u1_v1",
      "pbrMetallicRoughness": {
        "baseColorTexture": {
          "index": 0
        },
        "metallicFactor": 0.0
      }
    }
  ],
  "meshes": [
    {
      "name": "Object_0",
      "primitives": [
        {
          "attributes": {
            "NORMAL": 1,
            "POSITION": 0,
            "TEXCOORD_0": 2
          },
          "indices": 3,
          "material": 0,
          "mode": 4
        }
      ]
    },
    {
      "name": "Object_1",
      "primitives": [
        {
          "attributes": {
            "NORMAL": 5,
            "POSITION": 4,
            "TEXCOORD_0": 6
          },
          "indices": 7,
          "material": 0,
          "mode": 4
        }
      ]
    },
    {
      "name": "Object_2",
      "primitives": [
        {
          "attributes": {
            "NORMAL": 9,
            "POSITION": 8,
            "TEXCOORD_0": 10
          },
          "indices": 11,
          "material": 0,
          "mode": 4
        }
      ]
    },
    {
      "name": "Object_3",
      "primitives": [
        {
          "attributes": {
            "NORMAL": 13,
            "POSITION": 12,
            "TEXCOORD_0": 14
          },
          "indices": 15,
          "material": 0,
          "mode": 4
        }
      ]
    }
  ],
  "nodes": [
    {
      "children": [
        1
      ],
      "matrix": [
        1.0,
        0.0,
        0.0,
        0.0,
        0.0,
        2.220446049250313e-16,
        -1.0,
        0.0,
        0.0,
        1.0,
        2.220446049250313e-16,
        0.0,
        0.0,
        0.0,
        0.0,
        1.0
      ],
      "name": "Sketchfab_model"
    },
    {
      "children": [
        2,
        3,
        4,
        5
      ],
      "name": "shareModel.obj.cleaner.materialmerger.gles"
    },
    {
      "mesh": 0,
      "name": "Object_2"
    },
    {
      "mesh": 1,
      "name": "Object_3"
    },
    {
      "mesh": 2,
      "name": "Object_4"
    },
    {
      "mesh": 3,
      "name": "Object_5"
    }
  ],
  "samplers": [
    {
      "magFilter": 9729,
      "minFilter": 9987,
      "wrapS": 10497,
      "wrapT": 10497
    }
  ],
  "scene": 0,
  "scenes": [
    {
      "name": "Sketchfab_Scene",
      "nodes": [
        0
      ]
    }
  ],
  "textures": [
    {
      "sampler": 0,
      "source": 0
    }
  ]
}
