{
  "accessors": [
    {
      "bufferView": 1,
      "componentType": 5126,
      "count": 4,
      "max": [
        0.028532499447464943,
        -0.021948199719190598,
        0.07744459807872772
      ],
      "min": [
        -0.009678569622337818,
        -0.03409000113606453,
        0.07744459807872772
      ],
      "type": "VEC3"
    },
    {
      "bufferView": 1,
      "byteOffset": 48,
      "componentType": 5126,
      "count": 4,
      "max": [
        0.009275011718273163,
        0.011904803104698658,
        0.9998862147331238
      ],
      "min": [
        0.009275011718273163,
        0.011904803104698658,
        0.9998862147331238
      ],
      "type": "VEC3"
    },
    {
      "bufferView": 0,
      "componentType": 5125,
      "count": 6,
      "type": "SCALAR"
    },
    {
      "bufferView": 1,
      "byteOffset": 96,
      "componentType": 5126,
      "count": 641,
      "max": [
        0.04625660181045532,
        0.01358409970998764,
        0.13124899566173553
      ],
      "min": [
        -0.027403399348258972,
        -0.0365104004740715,
        -0.013830600306391716
      ],
      "type": "VEC3"
    },
    {
      "bufferView": 1,
      "byteOffset": 7788,
      "componentType": 5126,
      "count": 641,
      "max": [
        0.7177121639251709,
        0.9999074935913086,
        0.9999133348464966
      ],
      "min": [
        -0.9997912645339966,
        -0.999904990196228,
        -0.9998546242713928
      ],
      "type": "VEC3"
    },
    {
      "bufferView": 0,
      "byteOffset": 24,
      "componentType": 5125,
      "count": 1875,
      "type": "SCALAR"
    },
    {
      "bufferView": 1,
      "byteOffset": 15480,
      "componentType": 5126,
      "count": 21760,
      "max": [
        0.05133660137653351,
        0.023220499977469444,
        0.14631499350070953
      ],
      "min": [
        -0.03248339891433716,
        -0.0101496996358037,
        0.11202500015497208
      ],
      "type": "VEC3"
    },
    {
      "bufferView": 1,
      "byteOffset": 276600,
      "componentType": 5126,
      "count": 21760,
      "max": [
        0.9999217391014099,
        0.9999065399169922,
        0.9999133348464966
      ],
      "min": [
        -0.9999332427978516,
        -0.999904990196228,
        -0.9998812675476074
      ],
      "type": "VEC3"
    },
    {
      "bufferView": 0,
      "byteOffset": 7524,
      "componentType": 5125,
      "count": 126528,
      "type": "SCALAR"
    },
    {
      "bufferView": 1,
      "byteOffset": 537720,
      "componentType": 5126,
      "count": 24616,
      "max": [
        0.03412630036473274,
        0.023220499977469444,
        0.14631499350070953
      ],
      "min": [
        -0.015273000113666058,
        -0.0101496996358037,
        0.11202500015497208
      ],
      "type": "VEC3"
    },
    {
      "bufferView": 1,
      "byteOffset": 833112,
      "componentType": 5126,
      "count": 24616,
      "max": [
        0.9999068975448608,
        0.9999899864196777,
        0.9999867677688599
      ],
      "min": [
        -0.9998849034309387,
        -0.999904990196228,
        -0.9998850226402283
      ],
      "type": "VEC3"
    },
    {
      "bufferView": 0,
      "byteOffset": 513636,
      "componentType": 5125,
      "count": 143610,
      "type": "SCALAR"
    },
    {
      "bufferView": 1,
      "byteOffset": 1128504,
      "componentType": 5126,
      "count": 1768,
      "max": [
        0.04498659819364548,
        0.01323390007019043,
        0.1359509974718094
      ],
      "min": [
        -0.026133399456739426,
        -0.00016306800534948707,
        0.12709200382232666
      ],
      "type": "VEC3"
    },
    {
      "bufferView": 1,
      "byteOffset": 1149720,
      "componentType": 5126,
      "count": 1768,
      "max": [
        0.03708450496196747,
        0.9999074935913086,
        0.9999133348464966
      ],
      "min": [
        -0.015415599569678307,
        -0.999904990196228,
        -0.9998546242713928
      ],
      "type": "VEC3"
    },
    {
      "bufferView": 0,
      "byteOffset": 1088076,
      "componentType": 5125,
      "count": 5304,
      "type": "SCALAR"
    },
    {
      "bufferView": 1,
      "byteOffset": 1170936,
      "componentType": 5126,
      "count": 21760,
      "max": [
        0.05133669823408127,
        0.021542100235819817,
        -0.008383230306208134
      ],
      "min": [
        -0.029943300411105156,
        -0.011503400281071663,
        -0.041554298251867294
      ],
      "type": "VEC3"
    },
    {
      "bufferView": 1,
      "byteOffset": 1432056,
      "componentType": 5126,
      "count": 21760,
      "max": [
        0.9999933838844299,
        0.9997473359107971,
        0.9998305439949036
      ],
      "min": [
        -0.9999924898147583,
        -0.9998195171356201,
        -0.9998579025268555
      ],
      "type": "VEC3"
    },
    {
      "bufferView": 0,
      "byteOffset": 1109292,
      "componentType": 5125,
      "count": 126528,
      "type": "SCALAR"
    },
    {
      "bufferView": 1,
      "byteOffset": 1693176,
      "componentType": 5126,
      "count": 1168,
      "max": [
        0.04498659819364548,
        0.010869000107049942,
        0.1265459954738617
      ],
      "min": [
        -0.026133399456739426,
        0.002201860072091222,
        0.12238900363445282
      ],
      "type": "VEC3"
    },
    {
      "bufferView": 1,
      "byteOffset": 1707192,
      "componentType": 5126,
      "count": 1168,
      "max": [
        0.03708450496196747,
        0.9999074935913086,
        0.9999133348464966
      ],
      "min": [
        -0.015415599569678307,
        -0.999904990196228,
        -0.9998546242713928
      ],
      "type": "VEC3"
    },
    {
      "bufferView": 0,
      "byteOffset": 1615404,
      "componentType": 5125,
      "count": 3504,
      "type": "SCALAR"
    },
    {
      "bufferView": 1,
      "byteOffset": 1721208,
      "componentType": 5126,
      "count": 24616,
      "max": [
        0.040476299822330475,
        0.021542100235819817,
        -0.008383230306208134
      ],
      "min": [
        -0.01908300071954727,
        -0.011503400281071663,
        -0.041554298251867294
      ],
      "type": "VEC3"
    },
    {
      "bufferView": 1,
      "byteOffset": 2016600,
      "componentType": 5126,
      "count": 24616,
      "max": [
        0.9999987483024597,
        0.9998842477798462,
        0.9999411106109619
      ],
      "min": [
        -0.9999989867210388,
        -0.9999398589134216,
        -0.9999538660049438
      ],
      "type": "VEC3"
    },
    {
      "bufferView": 0,
      "byteOffset": 1629420,
      "componentType": 5125,
      "count": 143610,
      "type": "SCALAR"
    },
    {
      "bufferView": 1,
      "byteOffset": 2311992,
      "componentType": 5126,
      "count": 4489,
      "max": [
        0.050701700150966644,
        0.012099400162696838,
        0.16304300725460052
      ],
      "min": [
        -0.031848400831222534,
        -0.0365104004740715,
        -0.10108699649572372
      ],
      "type": "VEC3"
    },
    {
      "bufferView": 1,
      "byteOffset": 2365860,
      "componentType": 5126,
      "count": 4489,
      "max": [
        0.9997990131378174,
        0.9998703598976135,
        0.9999443292617798
      ],
      "min": [
        -0.9997912645339966,
        -0.9998639822006226,
        -0.9998466372489929
      ],
      "type": "VEC3"
    },
    {
      "bufferView": 0,
      "byteOffset": 2203860,
      "componentType": 5125,
      "count": 13299,
      "type": "SCALAR"
    },
    {
      "bufferView": 1,
      "byteOffset": 2419728,
      "componentType": 5126,
      "count": 2903,
      "max": [
        0.02061069943010807,
        -0.005708780139684677,
        0.16365399956703186
      ],
      "min": [
        -0.0020519299432635307,
        -0.009541410021483898,
        0.16339999437332153
      ],
      "type": "VEC3"
    },
    {
      "bufferView": 1,
      "byteOffset": 2454564,
      "componentType": 5126,
      "count": 2903,
      "max": [
        0.9998687505722046,
        0.9998281002044678,
        0.9998862147331238
      ],
      "min": [
        -0.9998043775558472,
        -0.9998431205749512,
        0.01598339155316353
      ],
      "type": "VEC3"
    },
    {
      "bufferView": 0,
      "byteOffset": 2257056,
      "componentType": 5125,
      "count": 8157,
      "type": "SCALAR"
    },
    {
      "bufferView": 1,
      "byteOffset": 2489400,
      "componentType": 5126,
      "count": 9244,
      "max": [
        0.05133669823408127,
        0.023220499977469444,
        0.14631499350070953
      ],
      "min": [
        -0.03248339891433716,
        -0.011503400281071663,
        -0.041554298251867294
      ],
      "type": "VEC3"
    },
    {
      "bufferView": 1,
      "byteOffset": 2600328,
      "componentType": 5126,
      "count": 9244,
      "max": [
        0.999697744846344,
        0.9999074935913086,
        0.9999133348464966
      ],
      "min": [
        -0.9996886253356934,
        -0.999904990196228,
        -0.9998812675476074
      ],
      "type": "VEC3"
    },
    {
      "bufferView": 0,
      "byteOffset": 2289684,
      "componentType": 5125,
      "count": 27930,
      "type": "SCALAR"
    },
    {
      "bufferView": 1,
      "byteOffset": 2711256,
      "componentType": 5126,
      "count": 2800,
      "max": [
        0.0386366993188858,
        0.019702499732375145,
        -0.010223699733614922
      ],
      "min": [
        -0.01724329963326454,
        -0.009663750417530537,
        -0.039714399725198746
      ],
      "type": "VEC3"
    },
    {
      "bufferView": 1,
      "byteOffset": 2744856,
      "componentType": 5126,
      "count": 2800,
      "max": [
        0.9996664524078369,
        0.005232541356235743,
        -0.025321511551737785
      ],
      "min": [
        -0.9996472597122192,
        0.0050927624106407166,
        -0.026041705161333084
      ],
      "type": "VEC3"
    },
    {
      "bufferView": 0,
      "byteOffset": 2401404,
      "componentType": 5125,
      "count": 8610,
      "type": "SCALAR"
    },
    {
      "bufferView": 1,
      "byteOffset": 2778456,
      "componentType": 5126,
      "count": 390,
      "max": [
        0.04752660170197487,
        0.012003200128674507,
        0.14212800562381744
      ],
      "min": [
        -0.02867339923977852,
        -0.033649198710918427,
        -0.10108699649572372
      ],
      "type": "VEC3"
    },
    {
      "bufferView": 1,
      "byteOffset": 2783136,
      "componentType": 5126,
      "count": 390,
      "max": [
        0.9997990131378174,
        0.9999092221260071,
        0.8805781006813049
      ],
      "min": [
        -0.9997912645339966,
        -0.0957958772778511,
        -0.9999256134033203
      ],
      "type": "VEC3"
    },
    {
      "bufferView": 0,
      "byteOffset": 2435844,
      "componentType": 5125,
      "count": 1092,
      "type": "SCALAR"
    },
    {
      "bufferView": 1,
      "byteOffset": 2787816,
      "componentType": 5126,
      "count": 12,
      "max": [
        0.04752660170197487,
        -0.0064795901998877525,
        0.1627890020608902
      ],
      "min": [
        -0.028676699846982956,
        -0.02118300087749958,
        0.1627890020608902
      ],
      "type": "VEC3"
    },
    {
      "bufferView": 1,
      "byteOffset": 2787960,
      "componentType": 5126,
      "count": 12,
      "max": [
        0.009275011718273163,
        0.011904803104698658,
        0.9998862147331238
      ],
      "min": [
        0.009275011718273163,
        0.011904803104698658,
        0.9998862147331238
      ],
      "type": "VEC3"
    },
    {
      "bufferView": 0,
      "byteOffset": 2440212,
      "componentType": 5125,
      "count": 24,
      "type": "SCALAR"
    },
    {
      "bufferView": 1,
      "byteOffset": 2788104,
      "componentType": 5126,
      "count": 1288,
      "max": [
        0.03854550048708916,
        -0.0018098499858751893,
        0.16304300725460052
      ],
      "min": [
        0.029879700392484665,
        -0.005752630066126585,
        0.14735299348831177
      ],
      "type": "VEC3"
    },
    {
      "bufferView": 1,
      "byteOffset": 2803560,
      "componentType": 5126,
      "count": 1288,
      "max": [
        0.9997990131378174,
        0.9998703598976135,
        0.9998862147331238
      ],
      "min": [
        -0.9997912645339966,
        -0.9998639822006226,
        0.015983404591679573
      ],
      "type": "VEC3"
    },
    {
      "bufferView": 0,
      "byteOffset": 2440308,
      "componentType": 5125,
      "count": 3864,
      "type": "SCALAR"
    },
    {
      "bufferView": 1,
      "byteOffset": 2819016,
      "componentType": 5126,
      "count": 5061,
      "max": [
        0.04080300033092499,
        0.008791809901595116,
        0.16304300725460052
      ],
      "min": [
        -0.02194969914853573,
        -0.030295100063085556,
        -0.10108699649572372
      ],
      "type": "VEC3"
    },
    {
      "bufferView": 1,
      "byteOffset": 2879748,
      "componentType": 5126,
      "count": 5061,
      "max": [
        0.9998698830604553,
        0.9998714923858643,
        0.9998862147331238
      ],
      "min": [
        -0.9998588562011719,
        -0.9998599886894226,
        0.015983395278453827
      ],
      "type": "VEC3"
    },
    {
      "bufferView": 0,
      "byteOffset": 2455764,
      "componentType": 5125,
      "count": 14649,
      "type": "SCALAR"
    },
    {
      "bufferView": 1,
      "byteOffset": 2940480,
      "componentType": 5126,
      "count": 1170,
      "max": [
        0.04640210047364235,
        0.008791809901595116,
        0.16339999437332153
      ],
      "min": [
        -0.02754879929125309,
        -0.012132300063967705,
        -0.10108699649572372
      ],
      "type": "VEC3"
    },
    {
      "bufferView": 1,
      "byteOffset": 2954520,
      "componentType": 5126,
      "count": 1170,
      "max": [
        0.9997990131378174,
        0.9998281002044678,
        0.9998862147331238
      ],
      "min": [
        -0.9997912645339966,
        -0.9998196363449097,
        -0.9998785853385925
      ],
      "type": "VEC3"
    },
    {
      "bufferView": 0,
      "byteOffset": 2514360,
      "componentType": 5125,
      "count": 3657,
      "type": "SCALAR"
    },
    {
      "bufferView": 1,
      "byteOffset": 2968560,
      "componentType": 5126,
      "count": 4363,
      "max": [
        0.05618010088801384,
        0.012099400162696838,
        0.1627890020608902
      ],
      "min": [
        -0.03808249905705452,
        -0.0365104004740715,
        -0.100832998752594
      ],
      "type": "VEC3"
    },
    {
      "bufferView": 1,
      "byteOffset": 3020916,
      "componentType": 5126,
      "count": 4363,
      "max": [
        0.9997990131378174,
        0.9998281002044678,
        0.9999874830245972
      ],
      "min": [
        -0.9998021125793457,
        -0.9998196363449097,
        -0.9998785853385925
      ],
      "type": "VEC3"
    },
    {
      "bufferView": 0,
      "byteOffset": 2528988,
      "componentType": 5125,
      "count": 12519,
      "type": "SCALAR"
    },
    {
      "bufferView": 1,
      "byteOffset": 3073272,
      "componentType": 5126,
      "count": 21762,
      "max": [
        0.04752660170197487,
        0.018055399879813194,
        0.14114999771118164
      ],
      "min": [
        -0.02867339923977852,
        -0.004984570201486349,
        0.11719100177288055
      ],
      "type": "VEC3"
    },
    {
      "bufferView": 1,
      "byteOffset": 3334416,
      "componentType": 5126,
      "count": 21762,
      "max": [
        0.9999218583106995,
        0.9999065399169922,
        0.9999133348464966
      ],
      "min": [
        -0.9999340176582336,
        -0.999904215335846,
        -0.9998624920845032
      ],
      "type": "VEC3"
    },
    {
      "bufferView": 0,
      "byteOffset": 2579064,
      "componentType": 5125,
      "count": 126534,
      "type": "SCALAR"
    },
    {
      "bufferView": 1,
      "byteOffset": 3595560,
      "componentType": 5126,
      "count": 3372,
      "max": [
        0.04498659819364548,
        0.015515400096774101,
        0.13861000537872314
      ],
      "min": [
        -0.026133399456739426,
        -0.0024445699527859688,
        0.11973100155591965
      ],
      "type": "VEC3"
    },
    {
      "bufferView": 1,
      "byteOffset": 3636024,
      "componentType": 5126,
      "count": 3372,
      "max": [
        0.9921659827232361,
        0.9999074935913086,
        0.9999133348464966
      ],
      "min": [
        -0.9920334815979004,
        -0.999904990196228,
        -0.9998546242713928
      ],
      "type": "VEC3"
    },
    {
      "bufferView": 0,
      "byteOffset": 3085200,
      "componentType": 5125,
      "count": 10302,
      "type": "SCALAR"
    },
    {
      "bufferView": 1,
      "byteOffset": 3676488,
      "componentType": 5126,
      "count": 21762,
      "max": [
        0.04752669855952263,
        0.016377100721001625,
        -0.013548299670219421
      ],
      "min": [
        -0.026133300736546516,
        -0.006338289938867092,
        -0.036389198154211044
      ],
      "type": "VEC3"
    },
    {
      "bufferView": 1,
      "byteOffset": 3937632,
      "componentType": 5126,
      "count": 21762,
      "max": [
        0.9999933838844299,
        0.9998179078102112,
        0.9998305439949036
      ],
      "min": [
        -0.9999924898147583,
        -0.9998476505279541,
        -0.9998466372489929
      ],
      "type": "VEC3"
    },
    {
      "bufferView": 0,
      "byteOffset": 3126408,
      "componentType": 5125,
      "count": 126534,
      "type": "SCALAR"
    },
    {
      "bufferView": 1,
      "byteOffset": 4198776,
      "componentType": 5126,
      "count": 3388,
      "max": [
        0.044986698776483536,
        0.013836500234901905,
        -0.016088299453258514
      ],
      "min": [
        -0.023593299090862274,
        -0.0037982899229973555,
        -0.03384900093078613
      ],
      "type": "VEC3"
    },
    {
      "bufferView": 1,
      "byteOffset": 4239432,
      "componentType": 5126,
      "count": 3388,
      "max": [
        0.999697744846344,
        0.9996787905693054,
        0.9998305439949036
      ],
      "min": [
        -0.9996886253356934,
        -0.9996723532676697,
        -0.9998466372489929
      ],
      "type": "VEC3"
    },
    {
      "bufferView": 0,
      "byteOffset": 3632544,
      "componentType": 5125,
      "count": 10374,
      "type": "SCALAR"
    }
  ],
  "asset": {
    "extras": {
      "author": "Proj_Big _Brain (https://sketchfab.com/547330)",
      "license": "CC-BY-4.0 (http://creativecommons.org/licenses/by/4.0/)",
      "source": "https://sketchfab.com/3d-models/lamborghini-countach-muse-version-f5ff9eefeacc4717be8e5f73d7b6c56d",
      "title": "Lamborghini Countach (MUSE Version)"
    },
    "generator": "Sketchfab-13.31.0",
    "version": "2.0"
  },
  "bufferViews": [
    {
      "buffer": 0,
      "byteLength": 3674040,
      "name": "floatBufferViews",
      "target": 34963
    },
    {
      "buffer": 0,
      "byteLength": 4280088,
      "byteOffset": 3674040,
      "byteStride": 12,
      "name": "floatBufferViews",
      "target": 34962
    }
  ],
  "buffers": [
    {
      "byteLength": 7954128,
      "uri": "scene.bin"
    }
  ],
  "extensionsUsed": [
    "KHR_materials_transmission"
  ],
  "materials": [
    {
      "doubleSided": true,
      "name": "0.000000_0.000000_0.000000_0.000000_0.000000",
      "pbrMetallicRoughness": {
        "baseColorFactor": [
          0.0,
          0.0,
          0.0,
          1.0
        ]
      }
    },
    {
      "alphaMode": "BLEND",
      "doubleSided": true,
      "name": "0.000000_0.000000_0.000000_0.000000_0.521569",
      "pbrMetallicRoughness": {
        "baseColorFactor": [
          0.0,
          0.0,
          0.0,
          0.478431
        ],
        "metallicFactor": 0.0
      }
    },
    {
      "doubleSided": true,
      "name": "0.043137_0.215686_0.403922_0.000000_0.000000",
      "pbrMetallicRoughness": {
        "baseColorFactor": [
          0.014281917484075268,
          0.07006941073918309,
          0.1306055541963543,
          1.0
        ]
      }
    },
    {
      "doubleSided": true,
      "name": "0.062745_0.062745_0.062745_0.000000_0.000000",
      "pbrMetallicRoughness": {
        "baseColorFactor": [
          0.02144914089468101,
          0.02144914089468101,
          0.02144914089468101,
          1.0
        ]
      }
    },
    {
      "doubleSided": true,
      "name": "0.301961_0.290196_0.262745_0.000000_0.000000",
      "pbrMetallicRoughness": {
        "baseColorFactor": [
          0.02719539435920559,
          0.023541129356435535,
          0.01592136773907777,
          1.0
        ]
      }
    },
    {
      "alphaMode": "BLEND",
      "doubleSided": true,
      "emissiveFactor": [
        0.022013820845676203,
        0.0,
        0.0
      ],
      "extensions": {
        "KHR_materials_transmission": {
          "transmissionFactor": 0.014092233423949607
        }
      },
      "name": "0.458824_0.105882_0.000000_0.000000_0.000000",
      "pbrMetallicRoughness": {
        "baseColorFactor": [
          0.4587999999999999,
          0.051059061072522886,
          0.0,
          0.9859077665760504
        ],
        "metallicFactor": 0.38857261279272465,
        "roughnessFactor": 0.2152357035754776
      }
    },
    {
      "doubleSided": true,
      "name": "0.501961_0.501961_0.501961_0.000000_0.000000",
      "pbrMetallicRoughness": {
        "baseColorFactor": [
          0.502,
          0.502,
          0.502,
          1.0
        ],
        "roughnessFactor": 0.2944740403018372
      }
    },
    {
      "doubleSided": true,
      "name": "0.615686_0.811765_0.929412_0.000000_0.000000",
      "pbrMetallicRoughness": {
        "baseColorFactor": [
          0.24679429276947287,
          0.24679429276947287,
          0.24679429276947287,
          1.0
        ],
        "roughnessFactor": 0.0
      }
    },
    {
      "doubleSided": true,
      "name": "0.917647_0.917647_0.917647_0.000000_0.000000",
      "pbrMetallicRoughness": {
        "baseColorFactor": [
          0.9176,
          0.9176,
          0.9176,
          1.0
        ],
        "roughnessFactor": 0.5
      }
    },
    {
      "doubleSided": true,
      "name": "1.000000_0.000000_0.000000_0.000000_0.000000",
      "pbrMetallicRoughness": {
        "baseColorFactor": [
          1.0,
          0.0,
          0.0,
          1.0
        ],
        "roughnessFactor": 0.4
      }
    },
    {
      "doubleSided": true,
      "name": "1.000000_0.756863_0.054902_0.000000_0.000000",
      "pbrMetallicRoughness": {
        "baseColorFactor": [
          1.0,
          0.7569,
          0.05489999999999993,
          1.0
        ],
        "roughnessFactor": 0.2
      }
    }
  ],
  "meshes": [
    {
      "name": "Object_0",
      "primitives": [
        {
          "attributes": {
            "NORMAL": 1,
            "POSITION": 0
          },
          "indices": 2,
          "material": 1,
          "mode": 4
        }
      ]
    },
    {
      "name": "Object_1",
      "primitives": [
        {
          "attributes": {
            "NORMAL": 4,
            "POSITION": 3
          },
          "indices": 5,
          "material": 0,
          "mode": 4
        }
      ]
    },
    {
      "name": "Object_2",
      "primitives": [
        {
          "attributes": {
            "NORMAL": 7,
            "POSITION": 6
          },
          "indices": 8,
          "material": 0,
          "mode": 4
        }
      ]
    },
    {
      "name": "Object_3",
      "primitives": [
        {
          "attributes": {
            "NORMAL": 10,
            "POSITION": 9
          },
          "indices": 11,
          "material": 0,
          "mode": 4
        }
      ]
    },
    {
      "name": "Object_4",
      "primitives": [
        {
          "attributes": {
            "NORMAL": 13,
            "POSITION": 12
          },
          "indices": 14,
          "material": 0,
          "mode": 4
        }
      ]
    },
    {
      "name": "Object_5",
      "primitives": [
        {
          "attributes": {
            "NORMAL": 16,
            "POSITION": 15
          },
          "indices": 17,
          "material": 0,
          "mode": 4
        }
      ]
    },
    {
      "name": "Object_6",
      "primitives": [
        {
          "attributes": {
            "NORMAL": 19,
            "POSITION": 18
          },
          "indices": 20,
          "material": 0,
          "mode": 4
        }
      ]
    },
    {
      "name": "Object_7",
      "primitives": [
        {
          "attributes": {
            "NORMAL": 22,
            "POSITION": 21
          },
          "indices": 23,
          "material": 0,
          "mode": 4
        }
      ]
    },
    {
      "name": "Object_8",
      "primitives": [
        {
          "attributes": {
            "NORMAL": 25,
            "POSITION": 24
          },
          "indices": 26,
          "material": 0,
          "mode": 4
        }
      ]
    },
    {
      "name": "Object_9",
      "primitives": [
        {
          "attributes": {
            "NORMAL": 28,
            "POSITION": 27
          },
          "indices": 29,
          "material": 2,
          "mode": 4
        }
      ]
    },
    {
      "name": "Object_10",
      "primitives": [
        {
          "attributes": {
            "NORMAL": 31,
            "POSITION": 30
          },
          "indices": 32,
          "material": 3,
          "mode": 4
        }
      ]
    },
    {
      "name": "Object_11",
      "primitives": [
        {
          "attributes": {
            "NORMAL": 34,
            "POSITION": 33
          },
          "indices": 35,
          "material": 3,
          "mode": 4
        }
      ]
    },
    {
      "name": "Object_12",
      "primitives": [
        {
          "attributes": {
            "NORMAL": 37,
            "POSITION": 36
          },
          "indices": 38,
          "material": 4,
          "mode": 4
        }
      ]
    },
    {
      "name": "Object_13",
      "primitives": [
        {
          "attributes": {
            "NORMAL": 40,
            "POSITION": 39
          },
          "indices": 41,
          "material": 5,
          "mode": 4
        }
      ]
    },
    {
      "name": "Object_14",
      "primitives": [
        {
          "attributes": {
            "NORMAL": 43,
            "POSITION": 42
          },
          "indices": 44,
          "material": 6,
          "mode": 4
        }
      ]
    },
    {
      "name": "Object_15",
      "primitives": [
        {
          "attributes": {
            "NORMAL": 46,
            "POSITION": 45
          },
          "indices": 47,
          "material": 7,
          "mode": 4
        }
      ]
    },
    {
      "name": "Object_16",
      "primitives": [
        {
          "attributes": {
            "NORMAL": 49,
            "POSITION": 48
          },
          "indices": 50,
          "material": 8,
          "mode": 4
        }
      ]
    },
    {
      "name": "Object_17",
      "primitives": [
        {
          "attributes": {
            "NORMAL": 52,
            "POSITION": 51
          },
          "indices": 53,
          "material": 9,
          "mode": 4
        }
      ]
    },
    {
      "name": "Object_18",
      "primitives": [
        {
          "attributes": {
            "NORMAL": 55,
            "POSITION": 54
          },
          "indices": 56,
          "material": 10,
          "mode": 4
        }
      ]
    },
    {
      "name": "Object_19",
      "primitives": [
        {
          "attributes": {
            "NORMAL": 58,
            "POSITION": 57
          },
          "indices": 59,
          "material": 10,
          "mode": 4
        }
      ]
    },
    {
      "name": "Object_20",
      "primitives": [
        {
          "attributes": {
            "NORMAL": 61,
            "POSITION": 60
          },
          "indices": 62,
          "material": 10,
          "mode": 4
        }
      ]
    },
    {
      "name": "Object_21",
      "primitives": [
        {
          "attributes": {
            "NORMAL": 64,
            "POSITION": 63
          },
          "indices": 65,
          "material": 10,
          "mode": 4
        }
      ]
    }
  ],
  "nodes": [
    {
      "children": [
        1
      ],
      "matrix": [
        1.0,
        0.0,
        0.0,
        0.0,
        0.0,
        -1.0,
        -4.440892098500626e-16,
        0.0,
        0.0,
        4.440892098500626e-16,
        -1.0,
        0.0,
        0.0,
        0.0,
        0.0,
        1.0
      ],
      "name": "Sketchfab_model"
    },
    {
      "children": [
        2,
        3,
        4,
        5,
        6,
        7,
        8,
        9,
        10,
        11,
        12,
        13,
        14,
        15,
        16,
        17,
        18,
        19,
        20,
        21,
        22,
        23
      ],
      "name": "Assembly 1.obj.cleaner.materialmerger.gles"
    },
    {
      "mesh": 0,
      "name": "Object_2"
    },
    {
      "mesh": 1,
      "name": "Object_3"
    },
    {
      "mesh": 2,
      "name": "Object_4"
    },
    {
      "mesh": 3,
      "name": "Object_5"
    },
    {
      "mesh": 4,
      "name": "Object_6"
    },
    {
      "mesh": 5,
      "name": "Object_7"
    },
    {
      "mesh": 6,
      "name": "Object_8"
    },
    {
      "mesh": 7,
      "name": "Object_9"
    },
    {
      "mesh": 8,
      "name": "Object_10"
    },
    {
      "mesh": 9,
      "name": "Object_11"
    },
    {
      "mesh": 10,
      "name": "Object_12"
    },
    {
      "mesh": 11,
      "name": "Object_13"
    },
    {
      "mesh": 12,
      "name": "Object_14"
    },
    {
      "mesh": 13,
      "name": "Object_15"
    },
    {
      "mesh": 14,
      "name": "Object_16"
    },
    {
      "mesh": 15,
      "name": "Object_17"
    },
    {
      "mesh": 16,
      "name": "Object_18"
    },
    {
      "mesh": 17,
      "name": "Object_19"
    },
    {
      "mesh": 18,
      "name": "Object_20"
    },
    {
      "mesh": 19,
      "name": "Object_21"
    },
    {
      "mesh": 20,
      "name": "Object_22"
    },
    {
      "mesh": 21,
      "name": "Object_23"
    }
  ],
  "scene": 0,
  "scenes": [
    {
      "name": "Sketchfab_Scene",
      "nodes": [
        0
      ]
    }
  ]
}
