{
  "accessors": [
    {
      "bufferView": 2,
      "componentType": 5126,
      "count": 6575,
      "max": [
        13.48737621307373,
        13.798999786376953,
        13.610221862792969
      ],
      "min": [
        -13.48737621307373,
        -21.26051902770996,
        -14.34089469909668
      ],
      "type": "VEC3"
    },
    {
      "bufferView": 2,
      "byteOffset": 78900,
      "componentType": 5126,
      "count": 6575,
      "max": [
        1.0,
        0.9999931454658508,
        0.9999931454658508
      ],
      "min": [
        -1.0,
        -0.9999931454658508,
        -0.9999931454658508
      ],
      "type": "VEC3"
    },
    {
      "bufferView": 3,
      "componentType": 5126,
      "count": 6575,
      "max": [
        1.0,
        1.0,
        0.9998515248298645,
        1.0
      ],
      "min": [
        -1.0,
        -1.0,
        -0.9999823570251465,
        -1.0
      ],
      "type": "VEC4"
    },
    {
      "bufferView": 1,
      "componentType": 5126,
      "count": 6575,
      "max": [
        0.9938009977340698,
        0.9924839735031128
      ],
      "min": [
        0.006907000206410885,
        0.018635999411344528
      ],
      "type": "VEC2"
    },
    {
      "bufferView": 0,
      "componentType": 5125,
      "count": 24486,
      "type": "SCALAR"
    }
  ],
  "asset": {
    "extras": {
      "author": "Ergin ERYILDIR (https://sketchfab.com/ergin3d.com)",
      "license": "CC-BY-4.0 (http://creativecommons.org/licenses/by/4.0/)",
      "source": "https://sketchfab.com/3d-models/american-football-helmet-aa779ac1b7d8459496d92e116b460ab6",
      "title": "American Football Helmet"
    },
    "generator": "Sketchfab-15.26.0",
    "version": "2.0"
  },
  "bufferViews": [
    {
      "buffer": 0,
      "byteLength": 97944,
      "name": "floatBufferViews",
      "target": 34963
    },
    {
      "buffer": 0,
      "byteLength": 52600,
      "byteOffset": 97944,
      "byteStride": 8,
      "name": "floatBufferViews",
      "target": 34962
    },
    {
      "buffer": 0,
      "byteLength": 157800,
      "byteOffset": 150544,
      "byteStride": 12,
      "name": "floatBufferViews",
      "target": 34962
    },
    {
      "buffer": 0,
      "byteLength": 105200,
      "byteOffset": 308344,
      "byteStride": 16,
      "name": "floatBufferViews",
      "target": 34962
    }
  ],
  "buffers": [
    {
      "byteLength": 413544,
      "uri": "scene.bin"
    }
  ],
  "extensionsUsed": [
    "KHR_materials_clearcoat"
  ],
  "images": [
    {
      "uri": "textures/Helmet_Base_baseColor.jpeg"
    },
    {
      "uri": "textures/Helmet_Base_metallicRoughness.png"
    },
    {
      "uri": "textures/Helmet_Base_normal.png"
    }
  ],
  "materials": [
    {
      "doubleSided": true,
      "extensions": {
        "KHR_materials_clearcoat": {
          "clearcoatFactor": 0.2880673983263756,
          "clearcoatRoughnessFactor": 0.32584672925442487
        }
      },
      "name": "Helmet_Base",
      "normalTexture": {
        "index": 2
      },
      "occlusionTexture": {
        "index": 1
      },
      "pbrMetallicRoughness": {
        "baseColorTexture": {
          "index": 0
        },
        "metallicRoughnessTexture": {
          "index": 1
        }
      }
    }
  ],
  "meshes": [
    {
      "name": "defaultMaterial",
      "primitives": [
        {
          "attributes": {
            "NORMAL": 1,
            "POSITION": 0,
            "TANGENT": 2,
            "TEXCOORD_0": 3
          },
          "indices": 4,
          "material": 0,
          "mode": 4
        }
      ]
    }
  ],
  "nodes": [
    {
      "children": [
        1
      ],
      "matrix": [
        1.0,
        0.0,
        0.0,
        0.0,
        0.0,
        2.220446049250313e-16,
        -1.0,
        0.0,
        0.0,
        1.0,
        2.220446049250313e-16,
        0.0,
        0.0,
        0.0,
        0.0,
        1.0
      ],
      "name": "Sketchfab_model"
    },
    {
      "children": [
        2
      ],
      "matrix": [
        1.0,
        0.0,
        0.0,
        0.0,
        0.0,
        -4.371139006309477e-08,
        0.999999999999999,
        0.0,
        0.0,
        -0.999999999999999,
        -4.371139006309477e-08,
        0.0,
        0.0,
        0.0,
        0.0,
        1.0
      ],
      "name": "Collada visual scene group"
    },
    {
      "children": [
        3
      ],
      "matrix": [
        1.0,
        0.0,
        0.0,
        0.0,
        0.0,
        0.0,
        -1.0,
        0.0,
        0.0,
        1.0,
        0.0,
        0.0,
        1e-06,
        0.365326,
        -3.730759,
        1.0
      ],
      "name": "Helmet"
    },
    {
      "mesh": 0,
      "name": "defaultMaterial"
    }
  ],
  "samplers": [
    {
      "magFilter": 9729,
      "minFilter": 9987,
      "wrapS": 10497,
      "wrapT": 10497
    }
  ],
  "scene": 0,
  "scenes": [
    {
      "name": "Sketchfab_Scene",
      "nodes": [
        0
      ]
    }
  ],
  "textures": [
    {
      "sampler": 0,
      "source": 0
    },
    {
      "sampler": 0,
      "source": 1
    },
    {
      "sampler": 0,
      "source": 2
    }
  ]
}
